<svg width="303" height="373" viewBox="0 0 303 373" fill="none" xmlns="http://www.w3.org/2000/svg">
<path d="M163.52 -146.959C164.527 -152.419 169.847 -155.912 175.198 -154.752L175.716 -154.625L189.425 -150.874L189.424 -150.869L205.23 -146.547C209.554 -144.898 212.162 -140.403 211.374 -135.748C209.083 -122.288 206.112 -95.4685 211.39 -64.5681L211.647 -63.0935C221.958 -5.34155 255.703 39.3267 311.871 69.6965L313.202 70.4114C362.415 96.6616 390.59 127.945 404.408 171.659L405.056 173.751C418.531 218.249 417.651 276.315 402.009 360.847L401.253 364.893C400.277 370.069 395.384 373.523 390.237 372.775L389.738 372.689L360.786 366.97C355.525 365.931 352.082 360.832 353.072 355.553C367.408 279.469 369.175 226.489 358.591 189.71L358.078 187.971C348.485 156.27 329.202 134.91 291.889 114.67L290.098 113.707C202.144 66.7949 172.568 -3.06352 163.363 -54.3171L162.94 -56.7439C156.454 -95.1519 160.185 -128.206 163.228 -145.349L163.52 -146.959Z" fill="#41595A" stroke="#41595A"/>
<path d="M95.3926 -12.6113C96.6346 -18.1133 102.28 -21.3513 107.624 -19.8057L108.141 -19.6406L144.597 -6.92676C143.407 -2.93326 137.458 19.2978 143.071 45.7002L143.376 47.0859C152.044 85.3388 181.032 114.95 229.358 135.197L231.674 136.154C260.952 148.089 295.938 168.108 308.267 217.714L308.553 218.891C318.336 259.81 311.645 317.349 287.375 399.496C285.832 404.71 280.325 407.682 275.13 406.091L275.059 406.069H275.042L246.895 397.47H246.894C241.924 395.96 239.039 390.807 240.252 385.805L240.383 385.321C261.405 314.156 268.24 263.804 261.17 231.794L260.823 230.283C257.998 218.478 253.348 209.245 245.746 201.484C238.39 193.974 228.298 187.87 214.501 182.13L213.154 181.575C131.296 148.218 103.818 95.6969 95.291 56.8555L94.8994 55.0166C89.0799 26.8587 92.1088 2.62773 95.1035 -11.2959L95.3926 -12.6113Z" fill="#E6ECE3" stroke="#41595A"/>
<path d="M348.218 -181.901C353.3 -183.758 358.884 -181.148 360.749 -176.126L360.918 -175.632C366.91 -156.413 378.868 -112.259 380.866 -60.499L380.954 -58.0283C383.999 36.5733 351.671 109.932 287.541 154.326L286.021 155.369C236.636 188.957 189.671 199.803 149.6 199.803C124.585 199.803 102.255 195.583 83.6611 190.007L81.874 189.463C44.8694 178.048 17.522 159.919 4.38965 150.006H4.39062C-0.0462243 146.655 -0.779646 140.348 2.66406 136.073L3.00977 135.666L22.8115 113.628L22.8125 113.627C26.0673 109.995 31.4732 109.361 35.502 112.014L35.8877 112.281C46.5354 120.048 68.1228 133.93 96.7559 142.703L98.125 143.117C115.427 148.268 132.649 150.854 149.736 150.854C186.162 150.854 221.975 139.171 256.76 115.916L258.416 114.8C309.05 80.3638 333.771 23.7479 331.983 -53.3994L331.937 -55.2256C330.661 -100.003 320.5 -139.528 314.987 -157.959L314.469 -159.676L314.468 -159.677L314.337 -160.144C313.147 -164.819 315.56 -169.689 320.009 -171.566L320.461 -171.744L348.218 -181.901Z" fill="#41595A" stroke="#41595A"/>
</svg>
