<svg width="268" height="373" viewBox="0 0 268 373" fill="none" xmlns="http://www.w3.org/2000/svg">
<path d="M184.293 505.425C184.733 510.959 180.498 515.711 175.029 515.975L174.496 515.986L160.283 515.911L160.283 515.906L143.896 515.822C139.293 515.349 135.611 511.682 135.167 506.981C133.896 493.387 129.825 466.713 116.729 438.231L116.099 436.874C91.1922 383.758 47.036 349.346 -15.0786 334.548L-16.5493 334.202C-70.8792 321.584 -106.191 298.658 -130.852 260.01L-132.019 258.157C-156.552 218.663 -170.731 162.348 -177.5 76.6477L-177.817 72.5441C-178.215 67.2913 -174.382 62.6888 -169.217 62.0797L-168.713 62.0336L-139.267 60.0641C-133.917 59.7063 -129.271 63.74 -128.861 69.0956C-123.017 146.298 -111.01 197.93 -91.2682 230.716L-90.3228 232.263C-72.852 260.401 -48.6979 276.042 -7.41706 285.935L-5.43786 286.402C91.661 308.951 138.309 368.775 160.466 415.899L161.503 418.134C177.709 453.554 182.66 486.448 184.158 503.795L184.293 505.425Z" fill="#41595A" stroke="#41595A"/>
<path d="M215.327 358.022C215.551 363.658 210.936 368.247 205.374 368.137L204.832 368.112L166.328 365.267C166.443 361.101 166.436 338.088 154.181 314.038L153.528 312.778C135.254 278.072 99.5904 256.973 47.67 249.923L45.1858 249.598C13.8159 245.648 -25.1589 235.366 -49.9063 190.641L-50.4872 189.579C-70.5279 152.586 -78.9573 95.2753 -76.7753 9.64602C-76.6342 4.20996 -72.0846 -0.0854738 -66.6542 0.106729L-66.5798 0.10903L-66.5638 0.104733L-37.1497 1.12622L-37.1487 1.12596C-31.9582 1.29821 -27.8373 5.52855 -27.7143 10.6746L-27.7156 11.1753C-29.6023 85.357 -23.1722 135.762 -8.05859 164.851L-7.33272 166.221C-1.54872 176.893 5.33308 184.607 14.6844 190.136C23.7335 195.487 35.0613 198.771 49.8742 200.744L51.3185 200.932C139.021 211.966 179.156 255.585 197.446 290.896L198.3 292.571C211.209 318.264 214.555 342.453 215.266 356.677L215.327 358.022Z" fill="#E6ECE3" stroke="#41595A"/>
<path d="M14.9315 586.98C10.503 590.089 4.43393 589.014 1.33244 584.645L1.04136 584.211C-9.72062 567.199 -32.6988 527.644 -48.0257 478.165L-48.7501 475.801C-76.1755 385.211 -63.9363 305.984 -13.4814 246.505L-12.2826 245.104C26.726 199.879 69.2839 177.247 107.99 166.876C132.152 160.402 154.813 158.698 174.217 159.272L176.084 159.335C214.782 160.783 245.889 171.217 261.14 177.393L261.139 177.393C266.292 179.482 268.633 185.384 266.413 190.404L266.184 190.887L252.761 217.3L252.76 217.301C250.557 221.651 245.499 223.663 240.921 222.143L240.479 221.985C228.184 217.238 203.739 209.416 173.811 208.353L172.382 208.308C154.336 207.81 137.032 209.769 120.526 214.192C85.3413 223.62 53.7728 244.174 26.1923 275.64L24.8814 277.147C-15.1148 323.514 -24.3402 384.599 -2.64609 458.655L-2.12816 460.407C10.6928 503.329 30.7376 538.877 40.8329 555.253L41.7781 556.777L41.7793 556.778L42.0265 557.195C44.3856 561.403 43.3152 566.731 39.5044 569.696L39.1136 569.985L14.9315 586.98Z" fill="#41595A" stroke="#41595A"/>
</svg>
