<svg width="80" height="77" viewBox="0 0 80 77" fill="none" xmlns="http://www.w3.org/2000/svg">
<ellipse opacity="0.3" cx="40" cy="38.5" rx="40" ry="38.5" fill="#CDE3C1"/>
<path d="M54.6004 41.8009C54.4953 41.8797 54.3758 41.937 54.2486 41.9696C54.1213 42.0022 53.989 42.0094 53.859 41.9908C53.729 41.9723 53.6039 41.9283 53.4909 41.8613C53.3779 41.7944 53.2792 41.7059 53.2004 41.6009C52.5976 40.7907 51.8131 40.1334 50.9099 39.6818C50.0067 39.2302 49.0102 38.997 48.0004 39.0009C47.7352 39.0009 47.4808 38.8955 47.2933 38.708C47.1057 38.5204 47.0004 38.2661 47.0004 38.0009C47.0004 37.7357 47.1057 37.4813 47.2933 37.2938C47.4808 37.1062 47.7352 37.0009 48.0004 37.0009C48.5615 37.0008 49.1113 36.8434 49.5874 36.5466C50.0635 36.2497 50.4469 35.8252 50.6938 35.3214C50.9408 34.8176 51.0416 34.2546 50.9846 33.6965C50.9277 33.1383 50.7154 32.6072 50.3717 32.1637C50.0281 31.7201 49.567 31.3818 49.0408 31.1871C48.5145 30.9925 47.9442 30.9494 47.3947 31.0626C46.8451 31.1758 46.3384 31.4409 45.9319 31.8277C45.5255 32.2146 45.2356 32.7076 45.0954 33.2509C45.0625 33.3781 45.005 33.4976 44.926 33.6026C44.8469 33.7075 44.748 33.7959 44.6349 33.8627C44.5217 33.9294 44.3965 33.9732 44.2664 33.9916C44.1363 34.0099 44.0038 34.0025 43.8766 33.9696C43.7494 33.9368 43.6299 33.8792 43.5249 33.8002C43.42 33.7212 43.3316 33.6223 43.2648 33.5091C43.1981 33.3959 43.1543 33.2707 43.1359 33.1406C43.1176 33.0105 43.125 32.8781 43.1579 32.7509C43.3526 31.9975 43.7204 31.3 44.2321 30.7138C44.7438 30.1276 45.3853 29.669 46.1054 29.3743C46.8256 29.0797 47.6046 28.9572 48.3804 29.0165C49.1563 29.0759 49.9075 29.3156 50.5745 29.7164C51.2414 30.1172 51.8056 30.6682 52.2221 31.3254C52.6386 31.9826 52.896 32.728 52.9738 33.5022C53.0516 34.2764 52.9476 35.0581 52.6701 35.7851C52.3926 36.512 51.9493 37.1642 51.3754 37.6896C52.7351 38.2784 53.9172 39.2126 54.8041 40.3996C54.8829 40.5049 54.9402 40.6248 54.9726 40.7523C55.005 40.8797 55.0119 41.0124 54.993 41.1425C54.974 41.2727 54.9296 41.3978 54.8623 41.5108C54.7949 41.6238 54.7059 41.7224 54.6004 41.8009ZM47.8654 49.5009C47.9352 49.6147 47.9815 49.7414 48.0016 49.8734C48.0216 50.0054 48.0151 50.1401 47.9822 50.2696C47.9494 50.399 47.891 50.5205 47.8104 50.627C47.7298 50.7335 47.6287 50.8228 47.5131 50.8896C47.3975 50.9564 47.2696 50.9993 47.1371 51.0159C47.0046 51.0325 46.8701 51.0224 46.7416 50.9862C46.6131 50.9499 46.4931 50.8883 46.3888 50.805C46.2844 50.7216 46.1979 50.6182 46.1341 50.5009C45.5041 49.4345 44.607 48.5508 43.5313 47.9369C42.4555 47.323 41.2383 47.0001 39.9998 47.0001C38.7612 47.0001 37.544 47.323 36.4683 47.9369C35.3925 48.5508 34.4954 49.4345 33.8654 50.5009C33.8029 50.6204 33.7168 50.726 33.6124 50.8114C33.508 50.8968 33.3874 50.9602 33.2579 50.9977C33.1284 51.0353 32.9926 51.0463 32.8587 51.0301C32.7248 51.0138 32.5956 50.9706 32.4788 50.9031C32.3621 50.8356 32.2602 50.7452 32.1793 50.6373C32.0983 50.5294 32.0401 50.4063 32.008 50.2753C31.9759 50.1443 31.9707 50.0081 31.9926 49.8751C32.0144 49.742 32.063 49.6147 32.1354 49.5009C33.1049 47.8351 34.5831 46.5242 36.3529 45.7609C35.357 44.9984 34.6252 43.9431 34.2601 42.7432C33.8951 41.5433 33.9153 40.2591 34.3178 39.0713C34.7203 37.8834 35.4849 36.8515 36.5042 36.1207C37.5235 35.3899 38.7462 34.9969 40.0004 34.9969C41.2546 34.9969 42.4773 35.3899 43.4965 36.1207C44.5158 36.8515 45.2805 37.8834 45.683 39.0713C46.0855 40.2591 46.1057 41.5433 45.7406 42.7432C45.3756 43.9431 44.6437 44.9984 43.6479 45.7609C45.4176 46.5242 46.8959 47.8351 47.8654 49.5009ZM40.0004 45.0009C40.7915 45.0009 41.5649 44.7663 42.2227 44.3268C42.8805 43.8872 43.3931 43.2625 43.6959 42.5316C43.9986 41.8007 44.0779 40.9964 43.9235 40.2205C43.7692 39.4446 43.3882 38.7319 42.8288 38.1724C42.2694 37.613 41.5567 37.2321 40.7807 37.0777C40.0048 36.9234 39.2005 37.0026 38.4696 37.3054C37.7387 37.6081 37.114 38.1208 36.6745 38.7786C36.235 39.4364 36.0004 40.2098 36.0004 41.0009C36.0004 42.0617 36.4218 43.0792 37.172 43.8293C37.9221 44.5794 38.9395 45.0009 40.0004 45.0009ZM33.0004 38.0009C33.0004 37.7357 32.895 37.4813 32.7075 37.2938C32.5199 37.1062 32.2656 37.0009 32.0004 37.0009C31.4393 37.0008 30.8895 36.8434 30.4133 36.5466C29.9372 36.2497 29.5539 35.8252 29.3069 35.3214C29.0599 34.8176 28.9592 34.2546 29.0161 33.6965C29.0731 33.1383 29.2854 32.6072 29.629 32.1637C29.9726 31.7201 30.4338 31.3818 30.96 31.1871C31.4863 30.9925 32.0565 30.9494 32.6061 31.0626C33.1556 31.1758 33.6624 31.4409 34.0688 31.8277C34.4753 32.2146 34.7651 32.7076 34.9054 33.2509C34.9717 33.5078 35.1373 33.7279 35.3659 33.8627C35.5945 33.9975 35.8672 34.0359 36.1241 33.9696C36.3811 33.9033 36.6011 33.7377 36.7359 33.5091C36.8707 33.2805 36.9092 33.0078 36.8429 32.7509C36.6482 31.9975 36.2803 31.3 35.7686 30.7138C35.2569 30.1276 34.6155 29.669 33.8953 29.3743C33.1752 29.0797 32.3962 28.9572 31.6203 29.0165C30.8445 29.0759 30.0932 29.3156 29.4263 29.7164C28.7594 30.1172 28.1952 30.6682 27.7787 31.3254C27.3621 31.9826 27.1047 32.728 27.027 33.5022C26.9492 34.2764 27.0532 35.0581 27.3307 35.7851C27.6082 36.512 28.0515 37.1642 28.6254 37.6896C27.267 38.2789 26.0863 39.2132 25.2004 40.3996C25.0411 40.6118 24.9726 40.8786 25.01 41.1412C25.0474 41.4039 25.1876 41.641 25.3998 41.8003C25.6119 41.9595 25.8787 42.028 26.1414 41.9906C26.404 41.9533 26.6411 41.813 26.8004 41.6009C27.4031 40.7907 28.1876 40.1334 29.0908 39.6818C29.994 39.2302 30.9906 38.997 32.0004 39.0009C32.2656 39.0009 32.5199 38.8955 32.7075 38.708C32.895 38.5204 33.0004 38.2661 33.0004 38.0009Z" fill="#728C69"/>
</svg>
