<svg width="80" height="77" viewBox="0 0 80 77" fill="none" xmlns="http://www.w3.org/2000/svg">
<ellipse opacity="0.3" cx="40" cy="38.5" rx="40" ry="38.5" fill="#CDE3C1"/>
<path d="M45.9922 49.698L44.8523 49.4729C44.6346 49.4298 44.4921 49.2188 44.5331 49.0004C45.1064 45.9578 45.1682 43.8576 44.7307 42.4119C44.3489 41.1504 43.576 40.3063 42.0638 39.4998C38.5394 37.62 37.3908 34.8053 37.0474 32.7749C36.7833 31.211 36.9486 29.8722 37.0702 29.2162C37.1133 28.983 37.3465 28.8365 37.575 28.899L39.0657 29.3069L38.1147 29.0468L38.6994 29.2048C38.9017 29.2592 39.028 29.4582 38.9931 29.6645C38.9017 30.2015 38.7827 31.2802 39.0038 32.5182C39.4118 34.8032 40.7539 36.5668 42.992 37.7604C44.9639 38.8122 46.0816 40.0704 46.6179 41.8407C47.1582 43.625 47.1132 45.9599 46.4687 49.3754C46.427 49.5965 46.2126 49.7417 45.9922 49.698Z" fill="#728C69"/>
<path d="M41.4766 51.0125L40.3657 50.6731C40.1533 50.6085 40.033 50.3834 40.0962 50.1704C40.9369 47.3241 41.1997 45.328 40.9006 44.0766C40.6795 43.1524 40.1741 42.6363 39.0356 42.1725C35.7552 40.8358 34.6865 38.7173 34.368 37.1756C34.1307 36.0277 34.2658 35.0451 34.3875 34.5047C34.4406 34.2695 34.6879 34.1344 34.9151 34.2137L36.3681 34.7205L36.3701 34.7144C36.3668 34.7238 36.0515 35.6936 36.315 36.855C36.6598 38.3766 37.8259 39.5514 39.7796 40.3478C40.9437 40.8223 42.3409 41.6228 42.8181 43.6189C43.2046 45.2352 42.9397 47.5049 41.984 50.7396C41.9202 50.9553 41.6924 51.0783 41.4773 51.0125H41.4766Z" fill="#728C69"/>
<path d="M36.5412 42.8917C35.5223 42.8917 34.6164 42.7143 33.869 42.4837C32.4092 42.0334 31.3305 41.3183 30.8123 40.9272C30.6228 40.784 30.5966 40.5105 30.7552 40.3337L31.5348 39.4661C31.674 39.3108 31.9078 39.288 32.0759 39.4103C32.5006 39.7201 33.369 40.278 34.5202 40.6214C35.1997 40.8237 35.8758 40.9252 36.5466 40.9252C37.999 40.9252 39.4271 40.452 40.8143 39.5091C42.8165 38.1474 43.7876 35.9013 43.7003 32.8319C43.6485 31.0146 43.2244 29.4171 43.0134 28.7248C42.9502 28.5192 43.0591 28.2994 43.2614 28.2254L44.3542 27.8256C44.5713 27.7463 44.8105 27.8639 44.8798 28.085C45.1197 28.8545 45.6023 30.6382 45.6695 32.7204C45.7904 36.4793 44.4947 39.3908 41.9233 41.1389C39.9756 42.4636 38.1226 42.8917 36.5412 42.8917Z" fill="#728C69"/>
<path d="M41.2577 33.3024C42.1293 33.3024 42.8358 32.5958 42.8358 31.7243C42.8358 30.8528 42.1293 30.1462 41.2577 30.1462C40.3862 30.1462 39.6797 30.8528 39.6797 31.7243C39.6797 32.5958 40.3862 33.3024 41.2577 33.3024Z" fill="#728C69"/>
<path d="M40 22.9004C44.2666 22.9005 48.2788 24.5499 51.3115 27.5459L51.3145 27.5439L51.3848 27.6152C54.4259 30.6564 56.1006 34.6997 56.1006 39C56.1005 43.3001 54.4257 47.3428 51.3848 50.3838C48.3436 53.4249 44.3003 55.0996 40 55.0996C35.834 55.0995 31.9088 53.5276 28.9033 50.665L28.6162 50.3838C25.5752 47.3427 23.9005 43.3002 23.9004 39C23.9004 34.6997 25.5758 30.6573 28.6162 27.6162L28.9033 27.335C31.9088 24.4717 35.8339 22.9004 40 22.9004ZM40 24.3447C36.2079 24.3447 32.6358 25.7753 29.8994 28.3809L29.6367 28.6367C26.869 31.4051 25.3447 35.0854 25.3447 39C25.3448 42.9144 26.8685 46.594 29.6367 49.3623L29.8994 49.6182C32.6358 52.2238 36.2078 53.6543 40 53.6543C43.9145 53.6542 47.594 52.1299 50.3623 49.3623L50.6182 49.1006C53.2239 46.3642 54.6542 42.7922 54.6543 39C54.6543 35.2078 53.2244 31.6358 50.6182 28.8994L50.3623 28.6367C47.594 25.8692 43.9144 24.3448 40 24.3447Z" fill="#728C69" stroke="#728C69" stroke-width="0.2"/>
</svg>
