<svg width="66" height="66" viewBox="0 0 66 66" fill="none" xmlns="http://www.w3.org/2000/svg">
<circle opacity="0.3" cx="27.5" cy="27.5" r="38.5" fill="#CDE3C1"/>
<path opacity="0.2" d="M33 30C33 30.9889 32.7068 31.9556 32.1574 32.7779C31.6079 33.6001 30.8271 34.241 29.9134 34.6194C28.9998 34.9978 27.9945 35.0969 27.0246 34.9039C26.0546 34.711 25.1637 34.2348 24.4645 33.5355C23.7652 32.8363 23.289 31.9454 23.0961 30.9755C22.9031 30.0055 23.0022 29.0002 23.3806 28.0866C23.759 27.173 24.3999 26.3921 25.2222 25.8427C26.0444 25.2932 27.0111 25 28 25C29.3261 25 30.5979 25.5268 31.5355 26.4645C32.4732 27.4021 33 28.6739 33 30ZM20 19C19.2089 19 18.4355 19.2346 17.7777 19.6741C17.1199 20.1136 16.6072 20.7384 16.3045 21.4693C16.0017 22.2002 15.9225 23.0044 16.0769 23.7804C16.2312 24.5563 16.6122 25.269 17.1716 25.8284C17.731 26.3878 18.4437 26.7688 19.2196 26.9231C19.9956 27.0775 20.7998 26.9983 21.5307 26.6955C22.2616 26.3928 22.8864 25.8801 23.3259 25.2223C23.7654 24.5645 24 23.7911 24 23C24 21.9391 23.5786 20.9217 22.8284 20.1716C22.0783 19.4214 21.0609 19 20 19ZM36 19C35.2089 19 34.4355 19.2346 33.7777 19.6741C33.1199 20.1136 32.6072 20.7384 32.3045 21.4693C32.0017 22.2002 31.9225 23.0044 32.0769 23.7804C32.2312 24.5563 32.6122 25.269 33.1716 25.8284C33.731 26.3878 34.4437 26.7688 35.2196 26.9231C35.9956 27.0775 36.7998 26.9983 37.5307 26.6955C38.2616 26.3928 38.8864 25.8801 39.3259 25.2223C39.7654 24.5645 40 23.7911 40 23C40 21.9391 39.5786 20.9217 38.8284 20.1716C38.0783 19.4214 37.0609 19 36 19Z" fill="#728C69"/>
<path d="M42.6004 30.8009C42.4953 30.8797 42.3758 30.937 42.2486 30.9696C42.1213 31.0022 41.989 31.0094 41.859 30.9908C41.729 30.9723 41.6039 30.9283 41.4909 30.8613C41.3779 30.7944 41.2792 30.7059 41.2004 30.6009C40.5976 29.7907 39.8131 29.1334 38.9099 28.6818C38.0067 28.2302 37.0102 27.997 36.0004 28.0009C35.7352 28.0009 35.4808 27.8955 35.2933 27.708C35.1057 27.5204 35.0004 27.2661 35.0004 27.0009C35.0004 26.7357 35.1057 26.4813 35.2933 26.2938C35.4808 26.1062 35.7352 26.0009 36.0004 26.0009C36.5615 26.0008 37.1113 25.8434 37.5874 25.5466C38.0635 25.2497 38.4469 24.8252 38.6938 24.3214C38.9408 23.8176 39.0416 23.2546 38.9846 22.6965C38.9277 22.1383 38.7154 21.6072 38.3717 21.1637C38.0281 20.7201 37.567 20.3818 37.0408 20.1871C36.5145 19.9925 35.9442 19.9494 35.3947 20.0626C34.8451 20.1758 34.3384 20.4409 33.9319 20.8277C33.5255 21.2146 33.2356 21.7076 33.0954 22.2509C33.0625 22.3781 33.005 22.4976 32.926 22.6026C32.8469 22.7075 32.748 22.7959 32.6349 22.8627C32.5217 22.9294 32.3965 22.9732 32.2664 22.9916C32.1363 23.0099 32.0038 23.0025 31.8766 22.9696C31.7494 22.9368 31.6299 22.8792 31.5249 22.8002C31.42 22.7212 31.3316 22.6223 31.2648 22.5091C31.1981 22.3959 31.1543 22.2707 31.1359 22.1406C31.1176 22.0105 31.125 21.8781 31.1579 21.7509C31.3526 20.9975 31.7204 20.3 32.2321 19.7138C32.7438 19.1276 33.3853 18.669 34.1054 18.3743C34.8256 18.0797 35.6046 17.9572 36.3804 18.0165C37.1563 18.0759 37.9075 18.3156 38.5745 18.7164C39.2414 19.1172 39.8056 19.6682 40.2221 20.3254C40.6386 20.9826 40.896 21.728 40.9738 22.5022C41.0516 23.2764 40.9476 24.0581 40.6701 24.7851C40.3926 25.512 39.9493 26.1642 39.3754 26.6896C40.7351 27.2784 41.9172 28.2126 42.8041 29.3996C42.8829 29.5049 42.9402 29.6248 42.9726 29.7523C43.005 29.8797 43.0119 30.0124 42.993 30.1425C42.974 30.2727 42.9296 30.3978 42.8623 30.5108C42.7949 30.6238 42.7059 30.7224 42.6004 30.8009ZM35.8654 38.5009C35.9352 38.6147 35.9815 38.7414 36.0016 38.8734C36.0216 39.0054 36.0151 39.1401 35.9822 39.2696C35.9494 39.399 35.891 39.5205 35.8104 39.627C35.7298 39.7335 35.6287 39.8228 35.5131 39.8896C35.3975 39.9564 35.2696 39.9993 35.1371 40.0159C35.0046 40.0325 34.8701 40.0224 34.7416 39.9862C34.6131 39.9499 34.4931 39.8883 34.3888 39.805C34.2844 39.7216 34.1979 39.6182 34.1341 39.5009C33.5041 38.4345 32.607 37.5508 31.5313 36.9369C30.4555 36.323 29.2383 36.0001 27.9998 36.0001C26.7612 36.0001 25.544 36.323 24.4683 36.9369C23.3925 37.5508 22.4954 38.4345 21.8654 39.5009C21.8029 39.6204 21.7168 39.726 21.6124 39.8114C21.508 39.8968 21.3874 39.9602 21.2579 39.9977C21.1284 40.0353 20.9926 40.0463 20.8587 40.0301C20.7248 40.0138 20.5956 39.9706 20.4788 39.9031C20.3621 39.8356 20.2602 39.7452 20.1793 39.6373C20.0983 39.5294 20.0401 39.4063 20.008 39.2753C19.9759 39.1443 19.9707 39.0081 19.9926 38.8751C20.0144 38.742 20.063 38.6147 20.1354 38.5009C21.1049 36.8351 22.5831 35.5242 24.3529 34.7609C23.357 33.9984 22.6252 32.9431 22.2601 31.7432C21.8951 30.5433 21.9153 29.2591 22.3178 28.0713C22.7203 26.8834 23.4849 25.8515 24.5042 25.1207C25.5235 24.3899 26.7462 23.9969 28.0004 23.9969C29.2546 23.9969 30.4773 24.3899 31.4965 25.1207C32.5158 25.8515 33.2805 26.8834 33.683 28.0713C34.0855 29.2591 34.1057 30.5433 33.7406 31.7432C33.3756 32.9431 32.6437 33.9984 31.6479 34.7609C33.4176 35.5242 34.8959 36.8351 35.8654 38.5009ZM28.0004 34.0009C28.7915 34.0009 29.5649 33.7663 30.2227 33.3268C30.8805 32.8872 31.3931 32.2625 31.6959 31.5316C31.9986 30.8007 32.0779 29.9964 31.9235 29.2205C31.7692 28.4446 31.3882 27.7319 30.8288 27.1724C30.2694 26.613 29.5567 26.2321 28.7807 26.0777C28.0048 25.9234 27.2005 26.0026 26.4696 26.3054C25.7387 26.6081 25.114 27.1208 24.6745 27.7786C24.235 28.4364 24.0004 29.2098 24.0004 30.0009C24.0004 31.0617 24.4218 32.0792 25.172 32.8293C25.9221 33.5794 26.9395 34.0009 28.0004 34.0009ZM21.0004 27.0009C21.0004 26.7357 20.895 26.4813 20.7075 26.2938C20.5199 26.1062 20.2656 26.0009 20.0004 26.0009C19.4393 26.0008 18.8895 25.8434 18.4133 25.5466C17.9372 25.2497 17.5539 24.8252 17.3069 24.3214C17.0599 23.8176 16.9592 23.2546 17.0161 22.6965C17.0731 22.1383 17.2854 21.6072 17.629 21.1637C17.9726 20.7201 18.4338 20.3818 18.96 20.1871C19.4863 19.9925 20.0565 19.9494 20.6061 20.0626C21.1556 20.1758 21.6624 20.4409 22.0688 20.8277C22.4753 21.2146 22.7651 21.7076 22.9054 22.2509C22.9717 22.5078 23.1373 22.7279 23.3659 22.8627C23.5945 22.9975 23.8672 23.0359 24.1241 22.9696C24.3811 22.9033 24.6011 22.7377 24.7359 22.5091C24.8707 22.2805 24.9092 22.0078 24.8429 21.7509C24.6482 20.9975 24.2803 20.3 23.7686 19.7138C23.2569 19.1276 22.6155 18.669 21.8953 18.3743C21.1752 18.0797 20.3962 17.9572 19.6203 18.0165C18.8445 18.0759 18.0932 18.3156 17.4263 18.7164C16.7594 19.1172 16.1952 19.6682 15.7787 20.3254C15.3621 20.9826 15.1047 21.728 15.027 22.5022C14.9492 23.2764 15.0532 24.0581 15.3307 24.7851C15.6082 25.512 16.0515 26.1642 16.6254 26.6896C15.267 27.2789 14.0863 28.2132 13.2004 29.3996C13.0411 29.6118 12.9726 29.8786 13.01 30.1412C13.0474 30.4039 13.1876 30.641 13.3998 30.8003C13.6119 30.9595 13.8787 31.028 14.1414 30.9906C14.404 30.9533 14.6411 30.813 14.8004 30.6009C15.4031 29.7907 16.1876 29.1334 17.0908 28.6818C17.994 28.2302 18.9906 27.997 20.0004 28.0009C20.2656 28.0009 20.5199 27.8955 20.7075 27.708C20.895 27.5204 21.0004 27.2661 21.0004 27.0009Z" fill="#728C69"/>
</svg>
