<svg width="66" height="66" viewBox="0 0 66 66" fill="none" xmlns="http://www.w3.org/2000/svg">
<circle opacity="0.3" cx="27.5" cy="27.5" r="38.5" fill="#CDE3C1"/>
<path opacity="0.2" d="M29.3179 30.6823C25.3279 24.0311 30.6479 17.3811 41.9541 18.0461C42.6254 29.3523 35.9691 34.6736 29.3179 30.6823ZM14.0329 23.0323C13.5579 31.1086 18.3091 34.9073 23.0591 32.0586C25.9091 27.3086 22.1091 22.5573 14.0329 23.0323Z" fill="#728C69"/>
<path d="M42.9537 17.9853C42.9395 17.7407 42.8358 17.5098 42.6625 17.3365C42.4893 17.1633 42.2584 17.0596 42.0137 17.0453C35.5437 16.6703 30.3487 18.6378 28.1162 22.3228C26.6412 24.7578 26.6437 27.7178 28.0962 30.5403C27.2704 31.5228 26.6662 32.6718 26.325 33.9091L24.2912 31.8741C25.2687 29.8328 25.2312 27.7041 24.1662 25.9378C22.5112 23.2154 18.7025 21.7491 13.9737 22.0328C13.7291 22.0471 13.4982 22.1508 13.3249 22.324C13.1517 22.4973 13.048 22.7282 13.0337 22.9728C12.755 27.7016 14.2162 31.5103 16.94 33.1603C17.8404 33.7099 18.8751 34.0002 19.93 33.9991C20.9524 33.9865 21.9588 33.7443 22.875 33.2903L26 36.4153V39.9991C26 40.2643 26.1053 40.5187 26.2929 40.7062C26.4804 40.8937 26.7348 40.9991 27 40.9991C27.2652 40.9991 27.5196 40.8937 27.7071 40.7062C27.8946 40.5187 28 40.2643 28 39.9991V36.3128C27.9955 34.722 28.5369 33.1777 29.5337 31.9378C30.8199 32.61 32.2464 32.9697 33.6975 32.9879C35.1005 32.9924 36.4774 32.6091 37.6762 31.8804C41.3612 29.6504 43.3337 24.4553 42.9537 17.9853ZM22.7575 30.3416L19.7062 27.2916C19.5172 27.112 19.2654 27.0133 19.0047 27.0167C18.7439 27.02 18.4948 27.1251 18.3104 27.3095C18.126 27.4939 18.0209 27.743 18.0176 28.0038C18.0142 28.2645 18.1129 28.5163 18.2925 28.7053L21.3437 31.7566C20.1425 32.1541 18.9775 32.0554 17.9762 31.4491C16.0587 30.2879 14.9737 27.5391 15 23.9991C18.5387 23.9678 21.2887 25.0578 22.45 26.9753C23.0562 27.9766 23.155 29.1416 22.7575 30.3416ZM36.64 30.1716C34.965 31.1854 32.9962 31.2629 30.9962 30.4216L37.7075 23.7091C37.8951 23.5216 38.0006 23.2673 38.0007 23.002C38.0008 22.7368 37.8956 22.4824 37.7081 22.2947C37.5206 22.1071 37.2663 22.0016 37.0011 22.0015C36.7358 22.0014 36.4814 22.1066 36.2937 22.2941L29.5812 28.9991C28.7362 26.9991 28.8125 25.0291 29.8312 23.3553C31.5737 20.4803 35.7062 18.8803 40.9975 19.0016C41.1175 24.2916 39.5175 28.4291 36.64 30.1716Z" fill="#728C69"/>
</svg>
