<svg width="66" height="66" viewBox="0 0 66 66" fill="none" xmlns="http://www.w3.org/2000/svg">
<circle opacity="0.3" cx="27.5" cy="27.5" r="38.5" fill="#CDE3C1"/>
<path opacity="0.2" d="M40 28C40 30.3734 39.2962 32.6935 37.9776 34.6668C36.6591 36.6402 34.7849 38.1783 32.5922 39.0866C30.3995 39.9948 27.9867 40.2324 25.6589 39.7694C23.3312 39.3064 21.193 38.1635 19.5147 36.4853C17.8365 34.8071 16.6936 32.6689 16.2306 30.3411C15.7676 28.0133 16.0052 25.6005 16.9135 23.4078C17.8217 21.2151 19.3598 19.3409 21.3332 18.0224C23.3066 16.7038 25.6266 16 28 16C31.1826 16 34.2348 17.2643 36.4853 19.5147C38.7357 21.7652 40 24.8174 40 28Z" fill="#728C69"/>
<path d="M28 15C25.4288 15 22.9154 15.7624 20.7776 17.1909C18.6398 18.6194 16.9735 20.6497 15.9896 23.0251C15.0056 25.4006 14.7482 28.0144 15.2498 30.5362C15.7514 33.0579 16.9895 35.3743 18.8076 37.1924C20.6257 39.0105 22.9421 40.2486 25.4638 40.7502C27.9856 41.2518 30.5995 40.9944 32.9749 40.0104C35.3503 39.0265 37.3807 37.3603 38.8091 35.2224C40.2376 33.0846 41 30.5712 41 28C40.9964 24.5533 39.6256 21.2488 37.1884 18.8116C34.7512 16.3744 31.4467 15.0036 28 15ZM28 39C25.8244 39 23.6977 38.3549 21.8887 37.1462C20.0798 35.9375 18.6699 34.2195 17.8373 32.2095C17.0048 30.1995 16.7869 27.9878 17.2114 25.854C17.6358 23.7202 18.6835 21.7602 20.2218 20.2218C21.7602 18.6834 23.7202 17.6358 25.854 17.2114C27.9878 16.7869 30.1995 17.0048 32.2095 17.8373C34.2195 18.6699 35.9375 20.0798 37.1462 21.8887C38.3549 23.6977 39 25.8244 39 28C38.9967 30.9164 37.8367 33.7123 35.7745 35.7745C33.7123 37.8367 30.9164 38.9967 28 39ZM22 25.5C22 25.2033 22.088 24.9133 22.2528 24.6666C22.4176 24.42 22.6519 24.2277 22.926 24.1142C23.2001 24.0006 23.5017 23.9709 23.7926 24.0288C24.0836 24.0867 24.3509 24.2296 24.5607 24.4393C24.7704 24.6491 24.9133 24.9164 24.9712 25.2074C25.0291 25.4983 24.9994 25.7999 24.8858 26.074C24.7723 26.3481 24.58 26.5824 24.3334 26.7472C24.0867 26.912 23.7967 27 23.5 27C23.1022 27 22.7206 26.842 22.4393 26.5607C22.158 26.2794 22 25.8978 22 25.5ZM34 25.5C34 25.7967 33.912 26.0867 33.7472 26.3334C33.5824 26.58 33.3481 26.7723 33.074 26.8858C32.7999 26.9994 32.4983 27.0291 32.2074 26.9712C31.9164 26.9133 31.6491 26.7704 31.4393 26.5607C31.2296 26.3509 31.0867 26.0836 31.0288 25.7926C30.971 25.5017 31.0007 25.2001 31.1142 24.926C31.2277 24.6519 31.42 24.4176 31.6667 24.2528C31.9133 24.088 32.2033 24 32.5 24C32.8978 24 33.2794 24.158 33.5607 24.4393C33.842 24.7206 34 25.1022 34 25.5ZM33.865 31.5C32.5788 33.7238 30.4413 35 28 35C25.5588 35 23.4213 33.725 22.135 31.5C22.0627 31.3862 22.0141 31.2589 21.9922 31.1258C21.9703 30.9927 21.9755 30.8566 22.0076 30.7256C22.0397 30.5946 22.098 30.4715 22.1789 30.3636C22.2598 30.2557 22.3617 30.1652 22.4785 30.0978C22.5952 30.0303 22.7245 29.9871 22.8583 29.9708C22.9922 29.9546 23.128 29.9655 23.2575 30.0031C23.3871 30.0407 23.5077 30.1041 23.6121 30.1895C23.7164 30.2749 23.8025 30.3805 23.865 30.5C24.7988 32.1138 26.2663 33 28 33C29.7338 33 31.2013 32.1125 32.135 30.5C32.1975 30.3805 32.2836 30.2749 32.388 30.1895C32.4924 30.1041 32.6129 30.0407 32.7425 30.0031C32.872 29.9655 33.0078 29.9546 33.1417 29.9708C33.2756 29.9871 33.4048 30.0303 33.5215 30.0978C33.6383 30.1652 33.7402 30.2557 33.8211 30.3636C33.902 30.4715 33.9603 30.5946 33.9924 30.7256C34.0245 30.8566 34.0297 30.9927 34.0078 31.1258C33.9859 31.2589 33.9374 31.3862 33.865 31.5Z" fill="#728C69"/>
</svg>
