<svg width="80" height="77" viewBox="0 0 80 77" fill="none" xmlns="http://www.w3.org/2000/svg">
<ellipse opacity="0.3" cx="40" cy="38.5" rx="40" ry="38.5" fill="#CDE3C1"/>
<path d="M54.9537 28.9853C54.9395 28.7407 54.8358 28.5098 54.6625 28.3365C54.4893 28.1633 54.2584 28.0596 54.0137 28.0453C47.5437 27.6703 42.3487 29.6378 40.1162 33.3228C38.6412 35.7578 38.6437 38.7178 40.0962 41.5403C39.2704 42.5228 38.6662 43.6718 38.325 44.9091L36.2912 42.8741C37.2687 40.8328 37.2312 38.7041 36.1662 36.9378C34.5112 34.2154 30.7025 32.7491 25.9737 33.0328C25.7291 33.0471 25.4982 33.1508 25.3249 33.324C25.1517 33.4973 25.048 33.7282 25.0337 33.9728C24.755 38.7016 26.2162 42.5103 28.94 44.1603C29.8404 44.7099 30.8751 45.0002 31.93 44.9991C32.9524 44.9865 33.9588 44.7443 34.875 44.2903L38 47.4153V50.9991C38 51.2643 38.1053 51.5187 38.2929 51.7062C38.4804 51.8937 38.7348 51.9991 39 51.9991C39.2652 51.9991 39.5196 51.8937 39.7071 51.7062C39.8946 51.5187 40 51.2643 40 50.9991V47.3128C39.9955 45.722 40.5369 44.1777 41.5337 42.9378C42.8199 43.61 44.2464 43.9697 45.6975 43.9879C47.1005 43.9924 48.4774 43.6091 49.6762 42.8804C53.3612 40.6504 55.3337 35.4553 54.9537 28.9853ZM34.7575 41.3416L31.7062 38.2916C31.5172 38.112 31.2654 38.0133 31.0047 38.0167C30.7439 38.02 30.4948 38.1251 30.3104 38.3095C30.126 38.4939 30.0209 38.743 30.0176 39.0038C30.0142 39.2645 30.1129 39.5163 30.2925 39.7053L33.3437 42.7566C32.1425 43.1541 30.9775 43.0554 29.9762 42.4491C28.0587 41.2879 26.9737 38.5391 27 34.9991C30.5387 34.9678 33.2887 36.0578 34.45 37.9753C35.0562 38.9766 35.155 40.1416 34.7575 41.3416ZM48.64 41.1716C46.965 42.1854 44.9962 42.2629 42.9962 41.4216L49.7075 34.7091C49.8951 34.5216 50.0006 34.2673 50.0007 34.002C50.0008 33.7368 49.8956 33.4824 49.7081 33.2947C49.5206 33.1071 49.2663 33.0016 49.0011 33.0015C48.7358 33.0014 48.4814 33.1066 48.2937 33.2941L41.5812 39.9991C40.7362 37.9991 40.8125 36.0291 41.8312 34.3553C43.5737 31.4803 47.7062 29.8803 52.9975 30.0016C53.1175 35.2916 51.5175 39.4291 48.64 41.1716Z" fill="#728C69"/>
</svg>
