<svg width="680" height="966" viewBox="0 0 680 966" fill="none" xmlns="http://www.w3.org/2000/svg">
<path opacity="0.2" d="M585.796 701.203C566.364 755.121 540.45 799.952 514.978 835.459C465.222 904.81 409.846 949.351 380.926 969.912C370.344 977.431 356.531 974.02 350.953 962.526L323.593 906.05C318.691 895.965 322.039 883.187 331.197 876.441C354.377 859.398 398.087 823.23 436.758 768.329C459.563 735.92 477.397 701.92 490.189 666.425C517.888 589.566 522.098 505.689 502.661 415.741C474.575 285.906 383.78 195.116 232.726 145.902C143.291 116.765 57.4516 111.186 19.7355 110.212C8.52136 109.948 -0.0983508 100.331 0.161684 88.329L1.55368 23.4485C1.83403 10.5696 12.1214 -0.0290869 24.2032 0.186007C66.2322 0.986523 162.248 6.7363 264.865 39.7001C450.12 99.2306 567.107 218.87 603.145 385.608C630.471 511.914 615.969 617.479 585.809 701.167L585.796 701.203Z" fill="url(#paint0_linear_0_1)"/>
<path opacity="0.5" d="M488.116 407.581C547.678 390.873 603.399 385.855 650.673 386.382C743.013 387.412 817.193 409.374 853.569 422.565C866.875 427.394 872.661 442.131 866.138 454.533L834.058 515.426C828.34 526.315 815.022 531.417 803.298 527.39C773.648 517.176 714.211 500.486 641.568 500.322C598.7 500.247 557.597 505.707 518.387 516.706C433.483 540.521 357.353 590.175 290.926 665.204C195.062 773.534 173.223 913.997 226.07 1082.75C257.36 1182.67 306.998 1264.29 330.101 1299.22C336.993 1309.58 334.046 1323.55 323.37 1330.97L265.666 1371.07C254.209 1379.03 238.393 1376.43 230.907 1365.31C204.913 1326.57 148.961 1235.59 112.649 1121.24C47.1135 914.803 77.5804 732.123 200.712 593.032C293.968 487.645 395.629 433.523 488.076 407.592L488.116 407.581Z" fill="url(#paint1_linear_0_1)"/>
<defs>
<linearGradient id="paint0_linear_0_1" x1="-117.71" y1="350.597" x2="616.757" y2="615.292" gradientUnits="userSpaceOnUse">
<stop stop-color="#5B7D7E"/>
<stop offset="1" stop-color="#5B7D7E" stop-opacity="0.2"/>
</linearGradient>
<linearGradient id="paint1_linear_0_1" x1="441.402" y1="310.874" x2="627.922" y2="1270.94" gradientUnits="userSpaceOnUse">
<stop stop-color="#A9BDA1"/>
<stop offset="1" stop-color="#A9BDA1" stop-opacity="0.2"/>
</linearGradient>
</defs>
</svg>
