<svg width="192" height="55" viewBox="0 0 192 55" fill="none" xmlns="http://www.w3.org/2000/svg">
<path d="M186.089 18.3474H191.192V19.5524H186.089V18.3474ZM186.216 22.756H192V23.9893H184.799V14.0664H191.802V15.2997H186.216V22.756Z" fill="#5C7D7F"/>
<path d="M178.451 23.9893V15.2997H175.049V14.0664H183.256V15.2997H179.854V23.9893H178.451Z" fill="#5C7D7F"/>
<path d="M165.094 23.9893L169.587 14.0664H170.991L175.499 23.9893H174.01L169.999 14.8602H170.566L166.554 23.9893H165.094ZM167.007 21.5086L167.39 20.3745H172.975L173.386 21.5086H167.007Z" fill="#5C7D7F"/>
<path d="M155.092 23.9893V14.0664H156.254L162.817 22.2174H162.208V14.0664H163.626V23.9893H162.463L155.9 15.8384H156.509V23.9893H155.092Z" fill="#5C7D7F"/>
<path d="M147.666 24.1048C146.91 24.1048 146.206 23.9772 145.554 23.7221C144.912 23.4669 144.354 23.1125 143.882 22.6589C143.409 22.1958 143.04 21.6571 142.776 21.0429C142.511 20.4286 142.379 19.7576 142.379 19.0299C142.379 18.3023 142.511 17.6313 142.776 17.017C143.04 16.4027 143.409 15.8688 143.882 15.4152C144.354 14.9521 144.912 14.593 145.554 14.3378C146.197 14.0827 146.901 13.9551 147.666 13.9551C148.422 13.9551 149.117 14.0827 149.75 14.3378C150.393 14.5835 150.95 14.9379 151.423 15.401C151.905 15.8546 152.273 16.3886 152.529 17.0028C152.793 17.6171 152.926 18.2928 152.926 19.0299C152.926 19.7671 152.793 20.4428 152.529 21.057C152.273 21.6713 151.905 22.21 151.423 22.6731C150.95 23.1267 150.393 23.4811 149.75 23.7362C149.117 23.9819 148.422 24.1048 147.666 24.1048ZM147.666 22.8432C148.215 22.8432 148.72 22.7487 149.183 22.5597C149.656 22.3706 150.062 22.106 150.402 21.7658C150.752 21.4162 151.021 21.0098 151.21 20.5467C151.409 20.0837 151.508 19.5781 151.508 19.0299C151.508 18.4818 151.409 17.9762 151.21 17.5131C151.021 17.0501 150.752 16.6484 150.402 16.3082C150.062 15.9586 149.656 15.6892 149.183 15.5002C148.72 15.3112 148.215 15.2167 147.666 15.2167C147.109 15.2167 146.594 15.3112 146.121 15.5002C145.658 15.6892 145.252 15.9586 144.902 16.3082C144.552 16.6484 144.278 17.0501 144.08 17.5131C143.891 17.9762 143.796 18.4818 143.796 19.0299C143.796 19.5781 143.891 20.0837 144.08 20.5467C144.278 21.0098 144.552 21.4162 144.902 21.7658C145.252 22.106 145.658 22.3706 146.121 22.5597C146.594 22.7487 147.109 22.8432 147.666 22.8432Z" fill="#5C7D7F"/>
<path d="M138.799 23.9893V14.0664H140.216V23.9893H138.799Z" fill="#5C7D7F"/>
<path d="M132.887 24.1048C132.131 24.1048 131.408 23.9914 130.718 23.7646C130.028 23.5283 129.485 23.2259 129.088 22.8573L129.612 21.7516C129.99 22.0824 130.472 22.3565 131.058 22.5738C131.644 22.7912 132.254 22.8999 132.887 22.8999C133.463 22.8999 133.931 22.8337 134.29 22.7014C134.649 22.5691 134.914 22.3895 135.084 22.1627C135.254 21.9265 135.339 21.6619 135.339 21.3689C135.339 21.0287 135.226 20.7546 134.999 20.5467C134.782 20.3388 134.494 20.1734 134.134 20.0506C133.785 19.9183 133.397 19.8049 132.972 19.7104C132.547 19.6159 132.117 19.5072 131.682 19.3843C131.257 19.252 130.865 19.0866 130.505 18.8882C130.156 18.6897 129.872 18.4251 129.655 18.0943C129.438 17.7541 129.329 17.3194 129.329 16.7902C129.329 16.2799 129.461 15.8121 129.726 15.3868C130 14.9521 130.416 14.6072 130.973 14.352C131.54 14.0874 132.258 13.9551 133.128 13.9551C133.704 13.9551 134.276 14.0307 134.843 14.1819C135.41 14.3331 135.902 14.5505 136.317 14.834L135.85 15.968C135.424 15.6845 134.975 15.4813 134.503 15.3585C134.03 15.2262 133.572 15.16 133.128 15.16C132.57 15.16 132.112 15.2309 131.753 15.3726C131.394 15.5144 131.129 15.7034 130.959 15.9397C130.798 16.1759 130.718 16.4405 130.718 16.7335C130.718 17.0832 130.827 17.3619 131.044 17.5699C131.271 17.7778 131.559 17.9431 131.909 18.066C132.268 18.1889 132.66 18.3023 133.085 18.4062C133.511 18.5007 133.936 18.6094 134.361 18.7322C134.796 18.8551 135.188 19.0158 135.538 19.2142C135.897 19.4127 136.185 19.6773 136.402 20.0081C136.62 20.3388 136.729 20.7641 136.729 21.2839C136.729 21.7847 136.591 22.2525 136.317 22.6872C136.043 23.1125 135.618 23.4574 135.042 23.7221C134.475 23.9772 133.756 24.1048 132.887 24.1048Z" fill="#5C7D7F"/>
<path d="M124.082 24.1048C123.326 24.1048 122.603 23.9914 121.913 23.7646C121.224 23.5283 120.68 23.2259 120.283 22.8573L120.808 21.7516C121.186 22.0824 121.668 22.3565 122.254 22.5738C122.84 22.7912 123.449 22.8999 124.082 22.8999C124.659 22.8999 125.127 22.8337 125.486 22.7014C125.845 22.5691 126.109 22.3895 126.279 22.1627C126.45 21.9265 126.535 21.6619 126.535 21.3689C126.535 21.0287 126.421 20.7546 126.194 20.5467C125.977 20.3388 125.689 20.1734 125.33 20.0506C124.98 19.9183 124.593 19.8049 124.167 19.7104C123.742 19.6159 123.312 19.5072 122.877 19.3843C122.452 19.252 122.06 19.0866 121.701 18.8882C121.351 18.6897 121.068 18.4251 120.85 18.0943C120.633 17.7541 120.524 17.3194 120.524 16.7902C120.524 16.2799 120.656 15.8121 120.921 15.3868C121.195 14.9521 121.611 14.6072 122.169 14.352C122.736 14.0874 123.454 13.9551 124.323 13.9551C124.9 13.9551 125.471 14.0307 126.038 14.1819C126.606 14.3331 127.097 14.5505 127.513 14.834L127.045 15.968C126.62 15.6845 126.171 15.4813 125.698 15.3585C125.226 15.2262 124.767 15.16 124.323 15.16C123.766 15.16 123.307 15.2309 122.948 15.3726C122.589 15.5144 122.324 15.7034 122.154 15.9397C121.994 16.1759 121.913 16.4405 121.913 16.7335C121.913 17.0832 122.022 17.3619 122.239 17.5699C122.466 17.7778 122.754 17.9431 123.104 18.066C123.463 18.1889 123.855 18.3023 124.281 18.4062C124.706 18.5007 125.131 18.6094 125.557 18.7322C125.991 18.8551 126.383 19.0158 126.733 19.2142C127.092 19.4127 127.38 19.6773 127.598 20.0081C127.815 20.3388 127.924 20.7641 127.924 21.2839C127.924 21.7847 127.787 22.2525 127.513 22.6872C127.239 23.1125 126.813 23.4574 126.237 23.7221C125.67 23.9772 124.952 24.1048 124.082 24.1048Z" fill="#5C7D7F"/>
<path d="M109.305 23.9893L113.798 14.0664H115.202L119.71 23.9893H118.221L114.209 14.8602H114.776L110.765 23.9893H109.305ZM111.218 21.5086L111.601 20.3745H117.186L117.597 21.5086H111.218Z" fill="#5C7D7F"/>
<path d="M101.213 23.9893V14.0664H105.083C105.952 14.0664 106.694 14.2034 107.308 14.4775C107.923 14.7516 108.395 15.1485 108.726 15.6682C109.057 16.188 109.222 16.807 109.222 17.5252C109.222 18.2435 109.057 18.8625 108.726 19.3822C108.395 19.8926 107.923 20.2895 107.308 20.573C106.694 20.8471 105.952 20.9841 105.083 20.9841H101.993L102.63 20.3178V23.9893H101.213ZM102.63 20.4596L101.993 19.7508H105.04C105.948 19.7508 106.633 19.5571 107.096 19.1696C107.568 18.7822 107.805 18.234 107.805 17.5252C107.805 16.8165 107.568 16.2683 107.096 15.8809C106.633 15.4934 105.948 15.2997 105.04 15.2997H101.993L102.63 14.5909V20.4596Z" fill="#5C7D7F"/>
<path d="M87.6738 23.9893V14.0664H88.8362L93.2874 21.5653H92.6636L97.0581 14.0664H98.2205L98.2346 23.9893H96.8738L96.8596 16.2069H97.1856L93.2732 22.7844H92.6211L88.6803 16.2069H89.0347V23.9893H87.6738Z" fill="#5C7D7F"/>
<path d="M80.2484 24.1048C79.4924 24.1048 78.7883 23.9772 78.1363 23.7221C77.4936 23.4669 76.9361 23.1125 76.4635 22.6589C75.991 22.1958 75.6225 21.6571 75.3579 21.0429C75.0932 20.4286 74.9609 19.7576 74.9609 19.0299C74.9609 18.3023 75.0932 17.6313 75.3579 17.017C75.6225 16.4027 75.991 15.8688 76.4635 15.4152C76.9361 14.9521 77.4936 14.593 78.1363 14.3378C78.7789 14.0827 79.4829 13.9551 80.2484 13.9551C81.0045 13.9551 81.6991 14.0827 82.3322 14.3378C82.9749 14.5835 83.5324 14.9379 84.005 15.401C84.4869 15.8546 84.8555 16.3886 85.1107 17.0028C85.3753 17.6171 85.5076 18.2928 85.5076 19.0299C85.5076 19.7671 85.3753 20.4428 85.1107 21.057C84.8555 21.6713 84.4869 22.21 84.005 22.6731C83.5324 23.1267 82.9749 23.4811 82.3322 23.7362C81.6991 23.9819 81.0045 24.1048 80.2484 24.1048ZM80.2484 22.8432C80.7966 22.8432 81.3021 22.7487 81.7652 22.5597C82.2377 22.3706 82.6441 22.106 82.9843 21.7658C83.334 21.4162 83.6033 21.0098 83.7923 20.5467C83.9908 20.0837 84.09 19.5781 84.09 19.0299C84.09 18.4818 83.9908 17.9762 83.7923 17.5131C83.6033 17.0501 83.334 16.6484 82.9843 16.3082C82.6441 15.9586 82.2377 15.6892 81.7652 15.5002C81.3021 15.3112 80.7966 15.2167 80.2484 15.2167C79.6909 15.2167 79.1758 15.3112 78.7033 15.5002C78.2402 15.6892 77.8339 15.9586 77.4842 16.3082C77.1345 16.6484 76.8605 17.0501 76.662 17.5131C76.473 17.9762 76.3785 18.4818 76.3785 19.0299C76.3785 19.5781 76.473 20.0837 76.662 20.5467C76.8605 21.0098 77.1345 21.4162 77.4842 21.7658C77.8339 22.106 78.2402 22.3706 78.7033 22.5597C79.1758 22.7487 79.6909 22.8432 80.2484 22.8432Z" fill="#5C7D7F"/>
<path d="M70.1688 24.1048C69.4128 24.1048 68.7134 23.9819 68.0708 23.7362C67.4376 23.4811 66.8848 23.1267 66.4123 22.6731C65.9492 22.21 65.5854 21.6713 65.3207 21.057C65.0561 20.4428 64.9238 19.7671 64.9238 19.0299C64.9238 18.2928 65.0561 17.6171 65.3207 17.0028C65.5854 16.3886 65.9539 15.8546 66.4264 15.401C66.899 14.9379 67.4518 14.5835 68.085 14.3378C68.7276 14.0827 69.4269 13.9551 70.183 13.9551C70.9485 13.9551 71.6525 14.0874 72.2951 14.352C72.9472 14.6072 73.5001 14.9899 73.9537 15.5002L73.0323 16.3933C72.6542 15.9964 72.229 15.7034 71.7565 15.5144C71.2839 15.3159 70.7783 15.2167 70.2397 15.2167C69.6821 15.2167 69.1623 15.3112 68.6804 15.5002C68.2078 15.6892 67.7967 15.9538 67.4471 16.294C67.0974 16.6343 66.8234 17.0406 66.6249 17.5131C66.4359 17.9762 66.3414 18.4818 66.3414 19.0299C66.3414 19.5781 66.4359 20.0884 66.6249 20.5609C66.8234 21.024 67.0974 21.4256 67.4471 21.7658C67.7967 22.106 68.2078 22.3706 68.6804 22.5597C69.1623 22.7487 69.6821 22.8432 70.2397 22.8432C70.7783 22.8432 71.2839 22.7487 71.7565 22.5597C72.229 22.3612 72.6542 22.0588 73.0323 21.6524L73.9537 22.5455C73.5001 23.0558 72.9472 23.4433 72.2951 23.7079C71.6525 23.9725 70.9437 24.1048 70.1688 24.1048Z" fill="#5C7D7F"/>
<g clip-path="url(#clip0_170_116)">
<path d="M37.799 45.887L35.8399 45.5001C35.4656 45.4261 35.2208 45.0634 35.2912 44.688C36.2766 39.4587 36.3828 35.8488 35.6308 33.3641C34.9747 31.1959 33.6463 29.745 31.0472 28.3589C24.9896 25.1279 23.0155 20.2902 22.4252 16.8005C21.9712 14.1124 22.2554 11.8114 22.4645 10.684C22.5384 10.2831 22.9392 10.0313 23.332 10.1387L25.8941 10.8399L24.2596 10.3929L25.2645 10.6643C25.6122 10.7579 25.8294 11.0998 25.7693 11.4544C25.6122 12.3774 25.4078 14.2314 25.7878 16.3592C26.489 20.2867 28.7958 23.3178 32.6425 25.3693C36.0317 27.1771 37.9527 29.3396 38.8745 32.3822C39.8032 35.4491 39.7258 39.4621 38.618 45.3326C38.5464 45.7126 38.1779 45.9621 37.799 45.887Z" fill="url(#paint0_linear_170_116)"/>
<path d="M30.0393 48.1465L28.1298 47.5632C27.7648 47.4523 27.558 47.0653 27.6666 46.6991C29.1117 41.8071 29.5633 38.3763 29.0493 36.2254C28.6692 34.6371 27.8006 33.7499 25.8438 32.9529C20.2055 30.6553 18.3688 27.0143 17.8213 24.3643C17.4135 22.3914 17.6457 20.7025 17.8548 19.7738C17.946 19.3695 18.3711 19.1373 18.7616 19.2736L21.259 20.1446L21.2624 20.1342C21.2567 20.1504 20.7149 21.8173 21.1677 23.8133C21.7603 26.4286 23.7645 28.4478 27.1225 29.8166C29.1232 30.6322 31.5248 32.008 32.3449 35.4387C33.0091 38.2169 32.554 42.1178 30.9114 47.6775C30.8017 48.0483 30.4101 48.2597 30.0404 48.1465H30.0393Z" fill="url(#paint1_linear_170_116)"/>
<path d="M21.5558 34.1889C19.8046 34.1889 18.2474 33.8839 16.9629 33.4877C14.4539 32.7138 12.5999 31.4847 11.7093 30.8124C11.3836 30.5663 11.3385 30.0962 11.6111 29.7924L12.9511 28.3011C13.1902 28.0343 13.5922 27.995 13.881 28.2052C14.611 28.7377 16.1035 29.6965 18.0822 30.2868C19.2501 30.6345 20.4122 30.8089 21.565 30.8089C24.0613 30.8089 26.516 29.9957 28.9002 28.375C32.3414 26.0347 34.0106 22.1742 33.8604 16.8986C33.7715 13.7751 33.0426 11.0293 32.6798 9.83954C32.5713 9.48606 32.7584 9.10833 33.1061 8.98126L34.9844 8.29395C35.3575 8.15764 35.7687 8.3598 35.8877 8.73984C36.3001 10.0625 37.1295 13.1282 37.245 16.7069C37.4529 23.1676 35.2258 28.1717 30.8062 31.1763C27.4586 33.453 24.2738 34.1889 21.5558 34.1889Z" fill="url(#paint2_linear_170_116)"/>
<path d="M29.6625 17.7072C31.1604 17.7072 32.3748 16.4929 32.3748 14.995C32.3748 13.497 31.1604 12.2827 29.6625 12.2827C28.1645 12.2827 26.9502 13.497 26.9502 14.995C26.9502 16.4929 28.1645 17.7072 29.6625 17.7072Z" fill="url(#paint3_linear_170_116)"/>
<path d="M46.9452 8.05484C41.7505 2.86014 34.845 0 27.4994 0C20.1538 0 13.2484 2.86014 8.05484 8.05484C2.8613 13.2495 0 20.1538 0 27.4994C0 34.845 2.86014 41.7505 8.05484 46.9452C13.2484 52.1387 20.155 55 27.5006 55C34.8462 55 41.7516 52.1399 46.9463 46.9452C52.141 41.7505 55.0012 34.845 55.0012 27.4994C55.0012 20.1538 52.141 13.2484 46.9463 8.05368L46.9452 8.05484ZM27.4994 2.13933C34.2732 2.13933 40.6415 4.77769 45.4319 9.56693C50.2223 14.3573 52.8595 20.7256 52.8595 27.4994C52.8595 34.2732 50.2212 40.6415 45.4319 45.4319C40.6415 50.2212 34.2732 52.8595 27.4994 52.8595C20.7256 52.8595 14.3573 50.2212 9.56693 45.4319C4.77653 40.6415 2.13933 34.2732 2.13933 27.4994C2.13933 20.7256 4.77769 14.3573 9.56693 9.56693C14.3573 4.77769 20.7256 2.13933 27.4994 2.13933Z" fill="url(#paint4_linear_170_116)"/>
</g>
<path d="M186.512 41.238C185.537 41.238 184.597 41.119 183.69 40.881C182.795 40.6317 182.064 40.3143 181.497 39.929L182.602 37.447C183.135 37.787 183.747 38.0703 184.438 38.297C185.141 38.5123 185.838 38.62 186.529 38.62C186.994 38.62 187.368 38.5803 187.651 38.501C187.934 38.4103 188.138 38.297 188.263 38.161C188.399 38.0137 188.467 37.8437 188.467 37.651C188.467 37.379 188.342 37.1637 188.093 37.005C187.844 36.8463 187.521 36.716 187.124 36.614C186.727 36.512 186.285 36.41 185.798 36.308C185.322 36.206 184.84 36.0757 184.353 35.917C183.877 35.7583 183.441 35.5543 183.044 35.305C182.647 35.0443 182.324 34.71 182.075 34.302C181.826 33.8827 181.701 33.3557 181.701 32.721C181.701 32.007 181.894 31.361 182.279 30.783C182.676 30.205 183.265 29.7403 184.047 29.389C184.829 29.0377 185.804 28.862 186.971 28.862C187.753 28.862 188.518 28.9527 189.266 29.134C190.025 29.304 190.7 29.559 191.289 29.899L190.252 32.398C189.685 32.092 189.124 31.8653 188.569 31.718C188.014 31.5593 187.475 31.48 186.954 31.48C186.489 31.48 186.115 31.531 185.832 31.633C185.549 31.7237 185.345 31.8483 185.22 32.007C185.095 32.1657 185.033 32.347 185.033 32.551C185.033 32.8117 185.152 33.0213 185.39 33.18C185.639 33.3273 185.962 33.452 186.359 33.554C186.767 33.6447 187.209 33.741 187.685 33.843C188.172 33.945 188.654 34.0753 189.13 34.234C189.617 34.3813 190.059 34.5853 190.456 34.846C190.853 35.0953 191.17 35.4297 191.408 35.849C191.657 36.257 191.782 36.7727 191.782 37.396C191.782 38.0873 191.584 38.7277 191.187 39.317C190.802 39.895 190.218 40.3597 189.436 40.711C188.665 41.0623 187.691 41.238 186.512 41.238Z" fill="#728C69"/>
<path d="M167.542 33.707H173.067V36.223H167.542V33.707ZM167.78 38.399H174.002V41H164.448V29.1H173.781V31.701H167.78V38.399Z" fill="#728C69"/>
<path d="M152.248 29.1H155.614V41H152.248V29.1ZM147.658 41H144.292V29.1H147.658V41ZM152.486 36.359H147.42V33.571H152.486V36.359Z" fill="#728C69"/>
<path d="M131.214 41.238C130.273 41.238 129.401 41.0907 128.596 40.796C127.803 40.49 127.111 40.0593 126.522 39.504C125.944 38.9487 125.491 38.297 125.162 37.549C124.833 36.7897 124.669 35.9567 124.669 35.05C124.669 34.1433 124.833 33.316 125.162 32.568C125.491 31.8087 125.944 31.1513 126.522 30.596C127.111 30.0407 127.803 29.6157 128.596 29.321C129.401 29.015 130.273 28.862 131.214 28.862C132.313 28.862 133.294 29.0547 134.155 29.44C135.028 29.8253 135.753 30.3807 136.331 31.106L134.189 33.044C133.804 32.5907 133.379 32.245 132.914 32.007C132.461 31.769 131.951 31.65 131.384 31.65C130.897 31.65 130.449 31.7293 130.041 31.888C129.633 32.0467 129.282 32.279 128.987 32.585C128.704 32.8797 128.477 33.2367 128.307 33.656C128.148 34.0753 128.069 34.54 128.069 35.05C128.069 35.56 128.148 36.0247 128.307 36.444C128.477 36.8633 128.704 37.226 128.987 37.532C129.282 37.8267 129.633 38.0533 130.041 38.212C130.449 38.3707 130.897 38.45 131.384 38.45C131.951 38.45 132.461 38.331 132.914 38.093C133.379 37.855 133.804 37.5093 134.189 37.056L136.331 38.994C135.753 39.708 135.028 40.2633 134.155 40.66C133.294 41.0453 132.313 41.238 131.214 41.238Z" fill="#728C69"/>
<path d="M104.194 41L109.447 29.1H112.762L118.032 41H114.53L110.416 30.749H111.742L107.628 41H104.194ZM107.067 38.688L107.934 36.206H113.748L114.615 38.688H107.067Z" fill="#728C69"/>
<path d="M90.9528 41.238C90.0008 41.238 89.1225 41.085 88.3178 40.779C87.5132 40.473 86.8105 40.0423 86.2098 39.487C85.6205 38.9203 85.1615 38.263 84.8328 37.515C84.5042 36.767 84.3398 35.9453 84.3398 35.05C84.3398 34.1547 84.5042 33.333 84.8328 32.585C85.1615 31.837 85.6205 31.1853 86.2098 30.63C86.8105 30.0633 87.5132 29.627 88.3178 29.321C89.1225 29.015 90.0008 28.862 90.9528 28.862C91.9162 28.862 92.7945 29.015 93.5878 29.321C94.3925 29.627 95.0895 30.0633 95.6788 30.63C96.2682 31.1853 96.7272 31.837 97.0558 32.585C97.3958 33.333 97.5658 34.1547 97.5658 35.05C97.5658 35.9453 97.3958 36.7727 97.0558 37.532C96.7272 38.28 96.2682 38.9317 95.6788 39.487C95.0895 40.0423 94.3925 40.473 93.5878 40.779C92.7945 41.085 91.9162 41.238 90.9528 41.238ZM90.9528 38.45C91.4062 38.45 91.8255 38.3707 92.2108 38.212C92.6075 38.0533 92.9475 37.8267 93.2308 37.532C93.5255 37.226 93.7522 36.8633 93.9108 36.444C94.0808 36.0247 94.1658 35.56 94.1658 35.05C94.1658 34.5287 94.0808 34.064 93.9108 33.656C93.7522 33.2367 93.5255 32.8797 93.2308 32.585C92.9475 32.279 92.6075 32.0467 92.2108 31.888C91.8255 31.7293 91.4062 31.65 90.9528 31.65C90.4995 31.65 90.0745 31.7293 89.6778 31.888C89.2925 32.0467 88.9525 32.279 88.6578 32.585C88.3745 32.8797 88.1478 33.2367 87.9778 33.656C87.8192 34.064 87.7398 34.5287 87.7398 35.05C87.7398 35.56 87.8192 36.0247 87.9778 36.444C88.1478 36.8633 88.3745 37.226 88.6578 37.532C88.9525 37.8267 89.2925 38.0533 89.6778 38.212C90.0745 38.3707 90.4995 38.45 90.9528 38.45Z" fill="#728C69"/>
<path d="M72.1231 41.238C71.1825 41.238 70.3098 41.0907 69.5051 40.796C68.7118 40.49 68.0205 40.0593 67.4311 39.504C66.8531 38.9487 66.3998 38.297 66.0711 37.549C65.7425 36.7897 65.5781 35.9567 65.5781 35.05C65.5781 34.1433 65.7425 33.316 66.0711 32.568C66.3998 31.8087 66.8531 31.1513 67.4311 30.596C68.0205 30.0407 68.7118 29.6157 69.5051 29.321C70.3098 29.015 71.1825 28.862 72.1231 28.862C73.2225 28.862 74.2028 29.0547 75.0641 29.44C75.9368 29.8253 76.6621 30.3807 77.2401 31.106L75.0981 33.044C74.7128 32.5907 74.2878 32.245 73.8231 32.007C73.3698 31.769 72.8598 31.65 72.2931 31.65C71.8058 31.65 71.3581 31.7293 70.9501 31.888C70.5421 32.0467 70.1908 32.279 69.8961 32.585C69.6128 32.8797 69.3861 33.2367 69.2161 33.656C69.0575 34.0753 68.9781 34.54 68.9781 35.05C68.9781 35.56 69.0575 36.0247 69.2161 36.444C69.3861 36.8633 69.6128 37.226 69.8961 37.532C70.1908 37.8267 70.5421 38.0533 70.9501 38.212C71.3581 38.3707 71.8058 38.45 72.2931 38.45C72.8598 38.45 73.3698 38.331 73.8231 38.093C74.2878 37.855 74.7128 37.5093 75.0981 37.056L77.2401 38.994C76.6621 39.708 75.9368 40.2633 75.0641 40.66C74.2028 41.0453 73.2225 41.238 72.1231 41.238Z" fill="#728C69"/>
<defs>
<linearGradient id="paint0_linear_170_116" x1="30.8489" y1="10.1139" x2="30.8489" y2="45.9004" gradientUnits="userSpaceOnUse">
<stop stop-color="#5B7D7E"/>
<stop offset="0.817308" stop-color="#728C69"/>
</linearGradient>
<linearGradient id="paint1_linear_170_116" x1="25.1177" y1="19.2345" x2="25.1177" y2="48.1771" gradientUnits="userSpaceOnUse">
<stop stop-color="#5B7D7E"/>
<stop offset="0.817308" stop-color="#728C69"/>
</linearGradient>
<linearGradient id="paint2_linear_170_116" x1="24.3455" y1="8.25137" x2="24.3455" y2="34.1889" gradientUnits="userSpaceOnUse">
<stop stop-color="#5B7D7E"/>
<stop offset="0.817308" stop-color="#728C69"/>
</linearGradient>
<linearGradient id="paint3_linear_170_116" x1="29.6625" y1="12.2827" x2="29.6625" y2="17.7072" gradientUnits="userSpaceOnUse">
<stop stop-color="#5B7D7E"/>
<stop offset="0.817308" stop-color="#728C69"/>
</linearGradient>
<linearGradient id="paint4_linear_170_116" x1="27.5006" y1="0" x2="27.5006" y2="55" gradientUnits="userSpaceOnUse">
<stop stop-color="#5B7D7E"/>
<stop offset="0.817308" stop-color="#728C69"/>
</linearGradient>
<clipPath id="clip0_170_116">
<rect width="55" height="55" fill="white"/>
</clipPath>
</defs>
</svg>
