<svg width="77" height="77" viewBox="0 0 77 77" fill="none" xmlns="http://www.w3.org/2000/svg">
<circle opacity="0.3" cx="38.5" cy="38.5" r="38.5" fill="#CDE3C1"/>
<path opacity="0.2" d="M49 42C49 43.9778 48.4135 45.9112 47.3147 47.5557C46.2159 49.2002 44.6541 50.4819 42.8268 51.2388C40.9996 51.9957 38.9889 52.1937 37.0491 51.8079C35.1093 51.422 33.3275 50.4696 31.9289 49.0711C30.5304 47.6725 29.578 45.8907 29.1922 43.9509C28.8063 42.0111 29.0043 40.0004 29.7612 38.1732C30.5181 36.3459 31.7998 34.7841 33.4443 33.6853C35.0888 32.5865 37.0222 32 39 32C41.6522 32 44.1957 33.0536 46.0711 34.9289C47.9464 36.8043 49 39.3478 49 42Z" fill="#728C69"/>
<path d="M43.7333 32.0725C45.02 31.3926 46.097 30.3749 46.8487 29.1288C47.6004 27.8827 47.9982 26.4553 47.9996 25C47.9996 24.7348 47.8942 24.4804 47.7067 24.2929C47.5191 24.1054 47.2648 24 46.9996 24H45.9996C44.57 24.0005 43.1666 24.3842 41.9356 25.1109C40.7045 25.8377 39.6907 26.8811 38.9996 28.1325C38.3084 26.8811 37.2946 25.8377 36.0635 25.1109C34.8325 24.3842 33.4291 24.0005 31.9996 24H30.9996C30.7343 24 30.48 24.1054 30.2924 24.2929C30.1049 24.4804 29.9996 24.7348 29.9996 25C29.9996 25.2652 30.1049 25.5196 30.2924 25.7071C30.48 25.8946 30.7343 26 30.9996 26H31.9996C33.4261 26.002 34.8055 26.5113 35.891 27.4369C36.9764 28.3626 37.6973 29.6442 37.9246 31.0525C35.2776 31.3116 32.8141 32.5209 30.9902 34.4566C29.1663 36.3923 28.1055 38.9232 28.0041 41.5809C27.9027 44.2385 28.7677 46.843 30.4388 48.912C32.1099 50.981 34.4741 52.3744 37.0936 52.8344C39.7132 53.2944 42.4106 52.7897 44.6867 51.4138C46.9628 50.038 48.6632 47.884 49.4734 45.3508C50.2835 42.8176 50.1484 40.0766 49.0931 37.6354C48.0377 35.1941 46.1336 33.2179 43.7333 32.0725ZM45.9158 26C45.6799 27.3831 44.9677 28.6401 43.9025 29.5533C42.8373 30.4664 41.4862 30.9782 40.0833 31C40.3192 29.6169 41.0314 28.3599 42.0966 27.4467C43.1618 26.5336 44.5129 26.0218 45.9158 26ZM38.9996 51C37.2195 51 35.4795 50.4722 33.9994 49.4832C32.5194 48.4943 31.3658 47.0887 30.6846 45.4442C30.0034 43.7996 29.8252 41.99 30.1725 40.2442C30.5198 38.4984 31.3769 36.8947 32.6356 35.636C33.8943 34.3774 35.4979 33.5202 37.2437 33.1729C38.9896 32.8257 40.7992 33.0039 42.4437 33.6851C44.0882 34.3663 45.4938 35.5198 46.4828 36.9999C47.4717 38.4799 47.9996 40.22 47.9996 42C47.9969 44.3861 47.0478 46.6738 45.3606 48.361C43.6733 50.0483 41.3857 50.9974 38.9996 51ZM45.9858 43.165C45.7286 44.6147 45.0323 45.9505 43.9912 46.9916C42.95 48.0327 41.6143 48.729 40.1646 48.9862C40.11 48.9951 40.0548 48.9997 39.9996 49C39.7488 48.9996 39.5074 48.9051 39.3231 48.7351C39.1388 48.5651 39.025 48.3321 39.0044 48.0822C38.9838 47.8323 39.0579 47.5838 39.2118 47.3859C39.3658 47.188 39.5885 47.0552 39.8358 47.0138C40.8764 46.8289 41.8351 46.329 42.5824 45.5816C43.3298 44.8343 43.8297 43.8756 44.0146 42.835C44.0605 42.5754 44.207 42.3445 44.4223 42.1924C44.6376 42.0403 44.9043 41.9794 45.1643 42.0229C45.4243 42.0663 45.6566 42.2107 45.8107 42.4246C45.9647 42.6385 46.0281 42.9046 45.9871 43.165H45.9858Z" fill="#728C69"/>
</svg>
