<svg width="172" height="138" viewBox="0 0 172 138" fill="none" xmlns="http://www.w3.org/2000/svg">
<circle cx="121.5" cy="20.5" r="121.5" fill="#E6ECE3"/>
<path d="M117.575 54.6957C114.719 54.6957 113.29 53.3729 113.29 50.7272L113.29 39.9684C113.29 37.3228 114.719 36 117.575 36L128.621 36C131.478 36 132.906 37.3228 132.906 39.9684L132.906 50.7272C132.906 56.9003 132.176 62.3091 130.716 66.9537C129.32 71.5394 126.526 75.5666 122.337 79.0353C120.94 80.1523 119.766 80.2993 118.813 79.4762L114.528 75.7724C113.576 74.9493 113.798 73.9498 115.195 72.774C117.353 71.0103 119.099 68.4822 120.432 65.1899C121.829 61.8388 122.527 58.3407 122.527 54.6957L117.575 54.6957ZM86.1522 54.6957C83.2955 54.6957 81.8672 53.3729 81.8672 50.7272L81.8672 39.9684C81.8672 37.3228 83.2955 36 86.1522 36L97.198 36C100.055 36 101.483 37.3228 101.483 39.9684L101.483 50.7272C101.483 56.9003 100.753 62.3091 99.2928 66.9537C97.8962 71.5394 95.1031 75.5666 90.9133 79.0353C89.5167 80.1523 88.3423 80.2993 87.3901 79.4762L83.1051 75.7724C82.1529 74.9493 82.375 73.9498 83.7716 72.774C85.93 71.0103 87.6757 68.4822 89.0088 65.1899C90.4054 61.8388 91.1037 58.3407 91.1037 54.6957L86.1522 54.6957Z" fill="#5B7D7E"/>
</svg>
