<svg width="77" height="77" viewBox="0 0 77 77" fill="none" xmlns="http://www.w3.org/2000/svg">
<circle opacity="0.3" cx="38.5" cy="38.5" r="38.5" fill="#CDE3C1"/>
<path opacity="0.2" d="M43.875 31.6875C43.875 32.1696 43.732 32.6409 43.4642 33.0417C43.1964 33.4425 42.8157 33.755 42.3703 33.9395C41.9249 34.1239 41.4348 34.1722 40.962 34.0782C40.4891 33.9841 40.0548 33.752 39.7139 33.4111C39.373 33.0702 39.1409 32.6359 39.0468 32.163C38.9528 31.6902 39.0011 31.2001 39.1855 30.7547C39.37 30.3093 39.6825 29.9286 40.0833 29.6608C40.4841 29.393 40.9554 29.25 41.4375 29.25C42.084 29.25 42.704 29.5068 43.1611 29.9639C43.6182 30.421 43.875 31.041 43.875 31.6875Z" fill="#728C69"/>
<path d="M41.4376 34.9375C42.0804 34.9375 42.7088 34.7469 43.2433 34.3898C43.7777 34.0327 44.1943 33.5251 44.4403 32.9312C44.6862 32.3374 44.7506 31.6839 44.6252 31.0535C44.4998 30.423 44.1903 29.8439 43.7357 29.3894C43.2812 28.9349 42.7021 28.6254 42.0717 28.4999C41.4413 28.3745 40.7878 28.4389 40.1939 28.6849C39.6001 28.9309 39.0925 29.3474 38.7354 29.8819C38.3783 30.4164 38.1876 31.0447 38.1876 31.6875C38.1876 32.5495 38.5301 33.3761 39.1396 33.9856C39.749 34.5951 40.5757 34.9375 41.4376 34.9375ZM41.4376 30.0625C41.759 30.0625 42.0732 30.1578 42.3405 30.3364C42.6077 30.5149 42.816 30.7687 42.939 31.0656C43.0619 31.3626 43.0941 31.6893 43.0314 32.0045C42.9687 32.3197 42.814 32.6093 42.5867 32.8365C42.3594 33.0638 42.0699 33.2186 41.7547 33.2813C41.4395 33.344 41.1127 33.3118 40.8158 33.1888C40.5189 33.0658 40.2651 32.8575 40.0865 32.5903C39.908 32.3231 39.8126 32.0089 39.8126 31.6875C39.8126 31.2565 39.9839 30.8432 40.2886 30.5385C40.5933 30.2337 41.0067 30.0625 41.4376 30.0625ZM48.2738 40.2878C48.2119 40.3163 47.5131 40.6209 46.2761 40.6209C44.8694 40.6209 42.7671 40.2269 40.1123 38.5897C39.7082 39.7368 39.1836 40.8378 38.5472 41.8742C39.6902 42.2261 40.7654 42.769 41.7271 43.4799C43.6639 44.9566 44.6876 47.059 44.6876 49.5625C44.6876 49.778 44.602 49.9847 44.4497 50.137C44.2973 50.2894 44.0906 50.375 43.8751 50.375C43.6597 50.375 43.453 50.2894 43.3006 50.137C43.1483 49.9847 43.0626 49.778 43.0626 49.5625C43.0626 45.3273 39.5394 43.8029 37.5641 43.2809C37.5082 43.352 37.4503 43.4241 37.3924 43.4941C35.3977 45.9113 32.8983 47.1687 30.1175 47.1687C29.8008 47.1702 29.4842 47.1556 29.1689 47.125C28.9534 47.1035 28.7553 46.9972 28.6182 46.8296C28.481 46.662 28.4161 46.4467 28.4376 46.2313C28.4592 46.0158 28.5655 45.8177 28.7331 45.6805C28.9007 45.5434 29.1159 45.4785 29.3314 45.5C31.9639 45.763 34.2541 44.7393 36.1361 42.4531C37.4046 40.9155 38.2689 39.0396 38.7005 37.6797C34.7477 35.3783 32.2229 37.3374 32.1955 37.3588C32.1127 37.4294 32.0166 37.4828 31.9128 37.5156C31.809 37.5484 31.6997 37.56 31.5914 37.5498C31.483 37.5395 31.3778 37.5076 31.2821 37.4559C31.1863 37.4043 31.1018 37.3339 31.0338 37.2489C30.9657 37.164 30.9154 37.0663 30.8859 36.9615C30.8563 36.8568 30.8481 36.7472 30.8617 36.6392C30.8754 36.5312 30.9105 36.4271 30.9652 36.3329C31.0198 36.2388 31.0928 36.1566 31.1798 36.0913C31.3322 35.9694 34.96 33.1459 40.2707 36.7585C44.8887 39.8978 47.5761 38.8213 47.6015 38.8091C47.6988 38.7631 47.8043 38.7369 47.9119 38.7321C48.0194 38.7272 48.1268 38.7438 48.2279 38.7808C48.329 38.8179 48.4217 38.8746 48.5007 38.9478C48.5796 39.0209 48.6433 39.1091 48.6879 39.207C48.7325 39.305 48.7572 39.4109 48.7605 39.5185C48.7639 39.6261 48.7458 39.7333 48.7074 39.8338C48.669 39.9344 48.6109 40.0263 48.5367 40.1042C48.4624 40.1822 48.3734 40.2446 48.2748 40.2878H48.2738Z" fill="#728C69"/>
</svg>
