<svg width="77" height="77" viewBox="0 0 77 77" fill="none" xmlns="http://www.w3.org/2000/svg">
<circle opacity="0.3" cx="38.5" cy="38.5" r="38.5" fill="#CDE3C1"/>
<path opacity="0.2" d="M51 39C51 41.3734 50.2962 43.6935 48.9776 45.6668C47.6591 47.6402 45.7849 49.1783 43.5922 50.0866C41.3995 50.9948 38.9867 51.2324 36.6589 50.7694C34.3312 50.3064 32.193 49.1635 30.5147 47.4853C28.8365 45.8071 27.6936 43.6689 27.2306 41.3411C26.7676 39.0133 27.0052 36.6005 27.9135 34.4078C28.8217 32.2151 30.3598 30.3409 32.3332 29.0224C34.3066 27.7038 36.6266 27 39 27C42.1826 27 45.2348 28.2643 47.4853 30.5147C49.7357 32.7652 51 35.8174 51 39Z" fill="#728C69"/>
<path d="M39 26C36.4288 26 33.9154 26.7624 31.7776 28.1909C29.6398 29.6194 27.9735 31.6497 26.9896 34.0251C26.0056 36.4006 25.7482 39.0144 26.2498 41.5362C26.7514 44.0579 27.9895 46.3743 29.8076 48.1924C31.6257 50.0105 33.9421 51.2486 36.4638 51.7502C38.9856 52.2518 41.5995 51.9944 43.9749 51.0104C46.3503 50.0265 48.3807 48.3603 49.8091 46.2224C51.2376 44.0846 52 41.5712 52 39C51.9964 35.5533 50.6256 32.2488 48.1884 29.8116C45.7512 27.3744 42.4467 26.0036 39 26ZM39 50C36.8244 50 34.6977 49.3549 32.8887 48.1462C31.0798 46.9375 29.6699 45.2195 28.8373 43.2095C28.0048 41.1995 27.7869 38.9878 28.2114 36.854C28.6358 34.7202 29.6835 32.7602 31.2218 31.2218C32.7602 29.6834 34.7202 28.6358 36.854 28.2114C38.9878 27.7869 41.1995 28.0048 43.2095 28.8373C45.2195 29.6699 46.9375 31.0798 48.1462 32.8887C49.3549 34.6977 50 36.8244 50 39C49.9967 41.9164 48.8367 44.7123 46.7745 46.7745C44.7123 48.8367 41.9164 49.9967 39 50ZM33 36.5C33 36.2033 33.088 35.9133 33.2528 35.6666C33.4176 35.42 33.6519 35.2277 33.926 35.1142C34.2001 35.0006 34.5017 34.9709 34.7926 35.0288C35.0836 35.0867 35.3509 35.2296 35.5607 35.4393C35.7704 35.6491 35.9133 35.9164 35.9712 36.2074C36.0291 36.4983 35.9994 36.7999 35.8858 37.074C35.7723 37.3481 35.58 37.5824 35.3334 37.7472C35.0867 37.912 34.7967 38 34.5 38C34.1022 38 33.7206 37.842 33.4393 37.5607C33.158 37.2794 33 36.8978 33 36.5ZM45 36.5C45 36.7967 44.912 37.0867 44.7472 37.3334C44.5824 37.58 44.3481 37.7723 44.074 37.8858C43.7999 37.9994 43.4983 38.0291 43.2074 37.9712C42.9164 37.9133 42.6491 37.7704 42.4393 37.5607C42.2296 37.3509 42.0867 37.0836 42.0288 36.7926C41.971 36.5017 42.0007 36.2001 42.1142 35.926C42.2277 35.6519 42.42 35.4176 42.6667 35.2528C42.9133 35.088 43.2033 35 43.5 35C43.8978 35 44.2794 35.158 44.5607 35.4393C44.842 35.7206 45 36.1022 45 36.5ZM44.865 42.5C43.5788 44.7238 41.4413 46 39 46C36.5588 46 34.4213 44.725 33.135 42.5C33.0627 42.3862 33.0141 42.2589 32.9922 42.1258C32.9703 41.9927 32.9755 41.8566 33.0076 41.7256C33.0397 41.5946 33.098 41.4715 33.1789 41.3636C33.2598 41.2557 33.3617 41.1652 33.4785 41.0978C33.5952 41.0303 33.7245 40.9871 33.8583 40.9708C33.9922 40.9546 34.128 40.9655 34.2575 41.0031C34.3871 41.0407 34.5077 41.1041 34.6121 41.1895C34.7164 41.2749 34.8025 41.3805 34.865 41.5C35.7988 43.1138 37.2663 44 39 44C40.7338 44 42.2013 43.1125 43.135 41.5C43.1975 41.3805 43.2836 41.2749 43.388 41.1895C43.4924 41.1041 43.6129 41.0407 43.7425 41.0031C43.872 40.9655 44.0078 40.9546 44.1417 40.9708C44.2756 40.9871 44.4048 41.0303 44.5215 41.0978C44.6383 41.1652 44.7402 41.2557 44.8211 41.3636C44.902 41.4715 44.9603 41.5946 44.9924 41.7256C45.0245 41.8566 45.0297 41.9927 45.0078 42.1258C44.9859 42.2589 44.9374 42.3862 44.865 42.5Z" fill="#728C69"/>
</svg>
