<svg width="77" height="77" viewBox="0 0 77 77" fill="none" xmlns="http://www.w3.org/2000/svg">
<circle opacity="0.3" cx="38.5" cy="38.5" r="38.5" fill="#CDE3C1"/>
<path opacity="0.2" d="M51 39C51 41.3734 50.2962 43.6935 48.9776 45.6668C47.6591 47.6402 45.7849 49.1783 43.5922 50.0866C41.3995 50.9948 38.9867 51.2324 36.6589 50.7694C34.3312 50.3064 32.193 49.1635 30.5147 47.4853C28.8365 45.8071 27.6936 43.6689 27.2306 41.3411C26.7676 39.0133 27.0052 36.6005 27.9135 34.4078C28.8217 32.2151 30.3598 30.3409 32.3332 29.0224C34.3066 27.7038 36.6266 27 39 27C42.1826 27 45.2348 28.2643 47.4853 30.5147C49.7357 32.7652 51 35.8174 51 39Z" fill="#728C69"/>
<path d="M39 26C36.4288 26 33.9154 26.7624 31.7776 28.1909C29.6398 29.6194 27.9735 31.6497 26.9896 34.0251C26.0056 36.4006 25.7482 39.0144 26.2498 41.5362C26.7514 44.0579 27.9895 46.3743 29.8076 48.1924C31.6257 50.0105 33.9421 51.2486 36.4638 51.7502C38.9856 52.2518 41.5995 51.9944 43.9749 51.0104C46.3503 50.0265 48.3807 48.3603 49.8091 46.2224C51.2376 44.0846 52 41.5712 52 39C51.9964 35.5533 50.6256 32.2488 48.1884 29.8116C45.7512 27.3744 42.4467 26.0036 39 26ZM39 50C36.8244 50 34.6977 49.3549 32.8887 48.1462C31.0798 46.9375 29.6699 45.2195 28.8373 43.2095C28.0048 41.1995 27.7869 38.9878 28.2114 36.854C28.6358 34.7202 29.6835 32.7602 31.2218 31.2218C32.7602 29.6834 34.7202 28.6358 36.854 28.2114C38.9878 27.7869 41.1995 28.0048 43.2095 28.8373C45.2195 29.6699 46.9375 31.0798 48.1462 32.8887C49.3549 34.6977 50 36.8244 50 39C49.9967 41.9164 48.8367 44.7123 46.7745 46.7745C44.7123 48.8367 41.9164 49.9967 39 50ZM33 36.5C33 36.2033 33.088 35.9133 33.2528 35.6666C33.4176 35.42 33.6519 35.2277 33.926 35.1142C34.2001 35.0006 34.5017 34.9709 34.7926 35.0288C35.0836 35.0867 35.3509 35.2296 35.5607 35.4393C35.7704 35.6491 35.9133 35.9164 35.9712 36.2074C36.0291 36.4983 35.9994 36.7999 35.8858 37.074C35.7723 37.3481 35.58 37.5824 35.3334 37.7472C35.0867 37.912 34.7967 38 34.5 38C34.1022 38 33.7206 37.842 33.4393 37.5607C33.158 37.2794 33 36.8978 33 36.5ZM42 36.5C42 36.2033 42.088 35.9133 42.2528 35.6666C42.4176 35.42 42.6519 35.2277 42.926 35.1142C43.2001 35.0006 43.5017 34.9709 43.7926 35.0288C44.0836 35.0867 44.3509 35.2296 44.5607 35.4393C44.7704 35.6491 44.9133 35.9164 44.9712 36.2074C45.0291 36.4983 44.9994 36.7999 44.8858 37.074C44.7723 37.3481 44.58 37.5824 44.3334 37.7472C44.0867 37.912 43.7967 38 43.5 38C43.1022 38 42.7207 37.842 42.4393 37.5607C42.158 37.2794 42 36.8978 42 36.5ZM46 44C46 44.2652 45.8946 44.5196 45.7071 44.7071C45.5196 44.8946 45.2652 45 45 45C43.75 45 43.1188 44.1575 42.7 43.6C42.325 43.1 42.21 43 42 43C41.79 43 41.6788 43.095 41.3 43.6C40.8813 44.1575 40.25 45 39 45C37.75 45 37.125 44.1575 36.7 43.6C36.325 43.1 36.21 43 36 43C35.79 43 35.6788 43.095 35.3 43.6C34.8813 44.1575 34.25 45 33 45C32.7348 45 32.4804 44.8946 32.2929 44.7071C32.1054 44.5196 32 44.2652 32 44C32 43.7348 32.1054 43.4804 32.2929 43.2929C32.4804 43.1054 32.7348 43 33 43C33.21 43 33.3213 42.905 33.7 42.4C34.125 41.8425 34.75 41 36 41C37.25 41 37.875 41.8425 38.3 42.4C38.675 42.9 38.79 43 39 43C39.21 43 39.3213 42.905 39.7 42.4C40.125 41.8425 40.75 41 42 41C43.25 41 43.8813 41.8425 44.3 42.4C44.675 42.9 44.79 43 45 43C45.2652 43 45.5196 43.1054 45.7071 43.2929C45.8946 43.4804 46 43.7348 46 44Z" fill="#728C69"/>
</svg>
