<svg width="245" height="990" viewBox="0 0 245 990" fill="none" xmlns="http://www.w3.org/2000/svg">
<path opacity="0.5" d="M410.116 21.5806C469.678 4.87315 525.399 -0.144923 572.673 0.381825C665.013 1.4122 739.193 23.3737 775.569 36.5648C788.875 41.3943 794.661 56.1313 788.138 68.5328L756.058 129.426C750.34 140.315 737.022 145.417 725.298 141.39C695.648 131.176 636.211 114.486 563.568 114.322C520.7 114.247 479.597 119.707 440.387 130.706C355.483 154.521 279.353 204.175 212.926 279.204C117.062 387.534 95.2235 527.997 148.07 696.753C179.36 796.669 228.998 878.293 252.101 913.215C258.993 923.582 256.046 937.553 245.37 944.97L187.666 985.073C176.209 993.03 160.393 990.432 152.907 979.307C126.913 940.573 70.9611 849.585 34.6489 735.241C-30.8865 528.803 -0.41963 346.123 122.712 207.032C215.968 101.645 317.629 47.5234 410.076 21.5916L410.116 21.5806Z" fill="url(#paint0_linear_170_1750)"/>
<defs>
<linearGradient id="paint0_linear_170_1750" x1="363.402" y1="-75.1255" x2="549.922" y2="884.94" gradientUnits="userSpaceOnUse">
<stop stop-color="#A9BDA1"/>
<stop offset="1" stop-color="#A9BDA1" stop-opacity="0.2"/>
</linearGradient>
</defs>
</svg>
