<svg width="251" height="978" viewBox="0 0 251 978" fill="none" xmlns="http://www.w3.org/2000/svg">
<path opacity="0.4" d="M-18.7233 903.088C-68.358 931.744 -117.082 949.276 -159.452 959.967C-242.212 980.85 -313.258 979.15 -348.619 976.2C-361.555 975.116 -369.907 963.598 -366.753 951.218L-351.217 890.417C-348.456 879.549 -337.653 871.947 -326.304 872.701C-297.598 874.636 -240.868 875.206 -175.9 858.212C-137.566 848.165 -102.004 833.696 -69.3291 814.831C1.42319 773.982 58.758 712.615 101.944 631.354C164.256 514.037 153.466 386.091 69.8142 251.031C20.2849 171.065 -41.6979 111.419 -69.8847 86.3397C-78.2821 78.9026 -78.6629 65.9939 -70.7203 56.992L-27.7954 8.32099C-19.2716 -1.33773 -4.57359 -2.79767 4.51822 5.16196C36.1121 32.891 105.759 99.234 162.891 190.628C266.017 355.638 278.204 522.524 198.156 673.165C137.539 787.295 58.3479 858.59 -18.6906 903.069L-18.7233 903.088Z" fill="url(#paint0_linear_49_1126)"/>
<defs>
<linearGradient id="paint0_linear_49_1126" x1="-329.993" y1="181.315" x2="60.3617" y2="857.428" gradientUnits="userSpaceOnUse">
<stop stop-color="#5B7D7E"/>
<stop offset="1" stop-color="#5B7D7E" stop-opacity="0.2"/>
</linearGradient>
</defs>
</svg>
