<svg width="1440" height="2764" viewBox="0 0 1440 2764" fill="none" xmlns="http://www.w3.org/2000/svg">
<g clip-path="url(#clip0_238_430)">
<rect width="1440" height="2764" fill="#F5F6FA"/>
<path opacity="0.4" d="M-18.7233 1040.09C-68.358 1068.74 -117.082 1086.28 -159.452 1096.97C-242.212 1117.85 -313.258 1116.15 -348.619 1113.2C-361.555 1112.12 -369.907 1100.6 -366.753 1088.22L-351.217 1027.42C-348.456 1016.55 -337.653 1008.95 -326.304 1009.7C-297.598 1011.64 -240.868 1012.21 -175.9 995.212C-137.566 985.165 -102.004 970.696 -69.3291 951.831C1.42319 910.982 58.758 849.615 101.944 768.354C164.256 651.037 153.466 523.091 69.8142 388.031C20.2849 308.065 -41.6979 248.419 -69.8847 223.34C-78.2821 215.903 -78.6629 202.994 -70.7203 193.992L-27.7954 145.321C-19.2716 135.662 -4.57359 134.202 4.51822 142.162C36.1121 169.891 105.759 236.234 162.891 327.628C266.017 492.638 278.204 659.524 198.156 810.165C137.539 924.295 58.3479 995.59 -18.6906 1040.07L-18.7233 1040.09Z" fill="url(#paint0_linear_238_430)"/>
<g opacity="0.83" filter="url(#filter0_f_238_430)">
<ellipse cx="190.5" cy="354" rx="336.5" ry="354" fill="url(#paint1_linear_238_430)"/>
</g>
<g opacity="0.93" filter="url(#filter1_f_238_430)">
<ellipse cx="1352.5" cy="929" rx="336.5" ry="354" fill="url(#paint2_linear_238_430)"/>
</g>
<path opacity="0.5" d="M1605.12 560.581C1664.68 543.873 1720.4 538.855 1767.67 539.382C1860.01 540.412 1934.19 562.374 1970.57 575.565C1983.87 580.394 1989.66 595.131 1983.14 607.533L1951.06 668.426C1945.34 679.315 1932.02 684.417 1920.3 680.39C1890.65 670.176 1831.21 653.486 1758.57 653.322C1715.7 653.247 1674.6 658.707 1635.39 669.706C1550.48 693.521 1474.35 743.175 1407.93 818.204C1312.06 926.534 1290.22 1067 1343.07 1235.75C1374.36 1335.67 1424 1417.29 1447.1 1452.22C1453.99 1462.58 1451.05 1476.55 1440.37 1483.97L1382.67 1524.07C1371.21 1532.03 1355.39 1529.43 1347.91 1518.31C1321.91 1479.57 1265.96 1388.59 1229.65 1274.24C1164.11 1067.8 1194.58 885.123 1317.71 746.032C1410.97 640.645 1512.63 586.523 1605.08 560.592L1605.12 560.581Z" fill="url(#paint3_linear_238_430)"/>
<g opacity="0.53" filter="url(#filter2_f_238_430)">
<ellipse cx="721.5" cy="1998" rx="336.5" ry="354" fill="url(#paint4_linear_238_430)"/>
</g>
<g opacity="0.83" filter="url(#filter3_f_238_430)">
<ellipse cx="707.5" cy="2626" rx="336.5" ry="354" fill="url(#paint5_linear_238_430)"/>
</g>
<path opacity="0.2" d="M1433.59 2519.77C1422.97 2576.09 1404.5 2624.46 1384.99 2663.56C1346.88 2739.94 1299.27 2792.7 1273.99 2817.6C1264.73 2826.7 1250.55 2825.53 1243.22 2815.06L1207.24 2763.65C1200.8 2754.47 1202.08 2741.32 1210.05 2733.21C1230.23 2712.7 1267.64 2670.05 1297.1 2609.71C1314.47 2574.09 1326.68 2537.69 1333.68 2500.61C1348.82 2420.33 1339.66 2336.85 1306.19 2251.13C1257.85 2127.4 1153.79 2052.17 996.839 2027.57C903.913 2013 818.276 2021.12 780.884 2026.15C769.77 2027.67 759.733 2019.54 758.084 2007.65L749.157 1943.37C747.389 1930.61 755.863 1918.51 767.826 1916.81C809.449 1910.92 905.16 1901.36 1011.71 1917.61C1204.07 1946.97 1338.56 2046.52 1400.62 2205.42C1447.65 2325.79 1450.09 2432.32 1433.6 2519.73L1433.59 2519.77Z" fill="url(#paint6_linear_238_430)"/>
<path opacity="0.5" d="M1404.12 2055.58C1463.68 2038.87 1519.4 2033.86 1566.67 2034.38C1659.01 2035.41 1733.19 2057.37 1769.57 2070.56C1782.87 2075.39 1788.66 2090.13 1782.14 2102.53L1750.06 2163.43C1744.34 2174.32 1731.02 2179.42 1719.3 2175.39C1689.65 2165.18 1630.21 2148.49 1557.57 2148.32C1514.7 2148.25 1473.6 2153.71 1434.39 2164.71C1349.48 2188.52 1273.35 2238.17 1206.93 2313.2C1111.06 2421.53 1089.22 2562 1142.07 2730.75C1173.36 2830.67 1223 2912.29 1246.1 2947.22C1252.99 2957.58 1250.05 2971.55 1239.37 2978.97L1181.67 3019.07C1170.21 3027.03 1154.39 3024.43 1146.91 3013.31C1120.91 2974.57 1064.96 2883.59 1028.65 2769.24C963.113 2562.8 993.58 2380.12 1116.71 2241.03C1209.97 2135.65 1311.63 2081.52 1404.08 2055.59L1404.12 2055.58Z" fill="url(#paint7_linear_238_430)"/>
<g opacity="0.93" filter="url(#filter4_f_238_430)">
<ellipse cx="-138.5" cy="3002" rx="336.5" ry="354" fill="url(#paint8_linear_238_430)"/>
</g>
</g>
<defs>
<filter id="filter0_f_238_430" x="-640" y="-494" width="1661" height="1696" filterUnits="userSpaceOnUse" color-interpolation-filters="sRGB">
<feFlood flood-opacity="0" result="BackgroundImageFix"/>
<feBlend mode="normal" in="SourceGraphic" in2="BackgroundImageFix" result="shape"/>
<feGaussianBlur stdDeviation="247" result="effect1_foregroundBlur_238_430"/>
</filter>
<filter id="filter1_f_238_430" x="392" y="-49" width="1921" height="1956" filterUnits="userSpaceOnUse" color-interpolation-filters="sRGB">
<feFlood flood-opacity="0" result="BackgroundImageFix"/>
<feBlend mode="normal" in="SourceGraphic" in2="BackgroundImageFix" result="shape"/>
<feGaussianBlur stdDeviation="312" result="effect1_foregroundBlur_238_430"/>
</filter>
<filter id="filter2_f_238_430" x="-239" y="1020" width="1921" height="1956" filterUnits="userSpaceOnUse" color-interpolation-filters="sRGB">
<feFlood flood-opacity="0" result="BackgroundImageFix"/>
<feBlend mode="normal" in="SourceGraphic" in2="BackgroundImageFix" result="shape"/>
<feGaussianBlur stdDeviation="312" result="effect1_foregroundBlur_238_430"/>
</filter>
<filter id="filter3_f_238_430" x="-123" y="1778" width="1661" height="1696" filterUnits="userSpaceOnUse" color-interpolation-filters="sRGB">
<feFlood flood-opacity="0" result="BackgroundImageFix"/>
<feBlend mode="normal" in="SourceGraphic" in2="BackgroundImageFix" result="shape"/>
<feGaussianBlur stdDeviation="247" result="effect1_foregroundBlur_238_430"/>
</filter>
<filter id="filter4_f_238_430" x="-1099" y="2024" width="1921" height="1956" filterUnits="userSpaceOnUse" color-interpolation-filters="sRGB">
<feFlood flood-opacity="0" result="BackgroundImageFix"/>
<feBlend mode="normal" in="SourceGraphic" in2="BackgroundImageFix" result="shape"/>
<feGaussianBlur stdDeviation="312" result="effect1_foregroundBlur_238_430"/>
</filter>
<linearGradient id="paint0_linear_238_430" x1="-329.993" y1="318.315" x2="60.3617" y2="994.428" gradientUnits="userSpaceOnUse">
<stop stop-color="#5B7D7E"/>
<stop offset="1" stop-color="#5B7D7E" stop-opacity="0.2"/>
</linearGradient>
<linearGradient id="paint1_linear_238_430" x1="-27.1077" y1="30.9485" x2="402.236" y2="210.775" gradientUnits="userSpaceOnUse">
<stop stop-color="#618280"/>
<stop offset="1" stop-color="#E1EEDA"/>
</linearGradient>
<linearGradient id="paint2_linear_238_430" x1="1134.89" y1="605.948" x2="1564.24" y2="785.775" gradientUnits="userSpaceOnUse">
<stop stop-color="#728C69"/>
<stop offset="1" stop-color="#E1EEDA"/>
</linearGradient>
<linearGradient id="paint3_linear_238_430" x1="1558.4" y1="463.874" x2="1744.92" y2="1423.94" gradientUnits="userSpaceOnUse">
<stop stop-color="#A9BDA1"/>
<stop offset="1" stop-color="#A9BDA1" stop-opacity="0.2"/>
</linearGradient>
<linearGradient id="paint4_linear_238_430" x1="503.892" y1="1674.95" x2="933.236" y2="1854.78" gradientUnits="userSpaceOnUse">
<stop stop-color="#728C69"/>
<stop offset="1" stop-color="#E1EEDA"/>
</linearGradient>
<linearGradient id="paint5_linear_238_430" x1="489.892" y1="2302.95" x2="919.236" y2="2482.78" gradientUnits="userSpaceOnUse">
<stop stop-color="#618280"/>
<stop offset="1" stop-color="#E1EEDA"/>
</linearGradient>
<linearGradient id="paint6_linear_238_430" x1="683.347" y1="2285.3" x2="1450.52" y2="2430.03" gradientUnits="userSpaceOnUse">
<stop stop-color="#5B7D7E"/>
<stop offset="1" stop-color="#5B7D7E" stop-opacity="0.2"/>
</linearGradient>
<linearGradient id="paint7_linear_238_430" x1="1357.4" y1="1958.87" x2="1543.92" y2="2918.94" gradientUnits="userSpaceOnUse">
<stop stop-color="#A9BDA1"/>
<stop offset="1" stop-color="#A9BDA1" stop-opacity="0.2"/>
</linearGradient>
<linearGradient id="paint8_linear_238_430" x1="-356.108" y1="2678.95" x2="73.2361" y2="2858.78" gradientUnits="userSpaceOnUse">
<stop stop-color="#728C69"/>
<stop offset="1" stop-color="#E1EEDA"/>
</linearGradient>
<clipPath id="clip0_238_430">
<rect width="1440" height="2764" fill="white"/>
</clipPath>
</defs>
</svg>
