<svg width="600" height="2537" viewBox="0 0 412 2537" fill="none" xmlns="http://www.w3.org/2000/svg">
<g clip-path="url(#clip0_238_1059)">
<rect width="412" height="2537" fill="#F5F6FA"/>
<g opacity="0.93" filter="url(#filter0_f_238_1059)">
<ellipse cx="-138.5" cy="2981" rx="336.5" ry="354" fill="url(#paint0_linear_238_1059)"/>
</g>
<g opacity="0.83" filter="url(#filter1_f_238_1059)">
<ellipse cx="95" cy="232.5" rx="241" ry="253.5" fill="url(#paint1_linear_238_1059)"/>
</g>
<path opacity="0.4" d="M-94.1273 261.097C-121.863 267.597 -147.566 268.935 -169.263 267.931C-211.642 265.971 -245.202 254.949 -261.602 248.462C-267.602 246.087 -269.92 239.406 -266.639 233.969L-250.508 207.273C-247.631 202.499 -241.399 200.435 -236.107 202.425C-222.727 207.472 -195.816 215.898 -162.462 217.152C-142.778 217.882 -123.778 216.109 -105.519 211.83C-65.9828 202.565 -29.8814 181.608 2.3477 149.151C48.8603 102.289 62.1186 39.861 41.7313 -36.4262C29.66 -81.5936 8.74253 -118.884 -1.06375 -134.868C-3.99015 -139.614 -2.31577 -145.811 2.75736 -148.952L30.1776 -165.939C35.6216 -169.31 42.8248 -167.892 46.0066 -162.797C57.053 -145.062 80.6545 -103.485 94.7002 -51.7862C120.048 41.5501 101.857 122.707 42.1156 182.876C-3.13193 228.465 -51.0602 251.004 -94.109 261.093L-94.1273 261.097Z" fill="url(#paint2_linear_238_1059)"/>
<g opacity="0.93" filter="url(#filter2_f_238_1059)">
<ellipse cx="561.5" cy="802" rx="336.5" ry="354" fill="url(#paint3_linear_238_1059)"/>
</g>
<path opacity="0.5" d="M608.298 460.035C657.926 434.733 706.234 420.432 748.066 412.522C829.775 397.075 899.159 403.324 933.612 408.527C946.215 410.434 953.935 422.421 950.373 434.525L932.835 493.971C929.716 504.598 918.862 511.462 907.797 509.983C879.81 506.217 824.376 502.01 760.21 514.733C722.349 522.261 687.026 534.363 654.355 551.019C583.613 587.086 525.193 644.411 479.835 722.422C414.386 835.048 419.987 962.932 496.538 1102.57C541.864 1185.24 600.148 1248.51 626.733 1275.25C634.654 1283.18 634.527 1296.04 626.415 1304.48L582.572 1350.11C573.866 1359.16 559.442 1359.67 550.862 1351.18C521.05 1321.58 455.532 1251.16 403.217 1156.64C308.786 985.982 303.326 819.298 387.4 674.682C451.068 565.116 531.238 499.323 608.266 460.051L608.298 460.035Z" fill="url(#paint4_linear_238_1059)"/>
<g opacity="0.53" filter="url(#filter3_f_238_1059)">
<ellipse cx="211.06" cy="1826.09" rx="194.948" ry="205.087" fill="url(#paint5_linear_238_1059)"/>
</g>
<g opacity="0.83" filter="url(#filter4_f_238_1059)">
<ellipse cx="202.948" cy="2189.91" rx="194.948" ry="205.087" fill="url(#paint6_linear_238_1059)"/>
</g>
<path opacity="0.2" d="M449.565 2490.87C443.582 2522.58 433.184 2549.82 422.197 2571.84C400.735 2614.84 373.932 2644.56 359.692 2658.57C354.482 2663.7 346.498 2663.04 342.369 2657.15L322.11 2628.19C318.483 2623.03 319.202 2615.62 323.69 2611.05C335.053 2599.51 356.119 2575.49 372.71 2541.51C382.491 2521.46 389.366 2500.96 393.304 2480.08C401.832 2434.88 396.674 2387.87 377.827 2339.6C350.606 2269.94 292.013 2227.58 203.637 2213.72C151.312 2205.52 103.091 2210.09 82.0366 2212.92C75.7786 2213.78 70.1269 2209.2 69.1984 2202.51L64.1721 2166.31C63.1766 2159.13 67.9482 2152.32 74.6842 2151.36C98.1212 2148.04 152.014 2142.66 212.01 2151.81C320.322 2168.34 396.055 2224.4 430.996 2313.87C457.479 2381.64 458.854 2441.63 449.569 2490.85L449.565 2490.87Z" fill="url(#paint7_linear_238_1059)"/>
<path opacity="0.5" d="M432.966 2229.5C466.504 2220.09 497.88 2217.26 524.499 2217.56C576.493 2218.14 618.263 2230.51 638.745 2237.93C646.238 2240.65 649.496 2248.95 645.823 2255.93L627.759 2290.22C624.539 2296.35 617.041 2299.23 610.439 2296.96C593.744 2291.21 560.276 2281.81 519.372 2281.72C495.234 2281.68 472.09 2284.75 450.011 2290.94C402.204 2304.35 359.336 2332.31 321.933 2374.56C267.953 2435.56 255.656 2514.65 285.413 2609.67C303.032 2665.93 330.982 2711.89 343.991 2731.56C347.872 2737.4 346.212 2745.26 340.201 2749.44L307.709 2772.02C301.258 2776.5 292.352 2775.04 288.137 2768.77C273.5 2746.96 241.995 2695.73 221.548 2631.34C184.646 2515.1 201.802 2412.24 271.135 2333.92C323.645 2274.58 380.889 2244.1 432.944 2229.5L432.966 2229.5Z" fill="url(#paint8_linear_238_1059)"/>
</g>
<defs>
<filter id="filter0_f_238_1059" x="-1099" y="2003" width="1921" height="1956" filterUnits="userSpaceOnUse" color-interpolation-filters="sRGB">
<feFlood flood-opacity="0" result="BackgroundImageFix"/>
<feBlend mode="normal" in="SourceGraphic" in2="BackgroundImageFix" result="shape"/>
<feGaussianBlur stdDeviation="312" result="effect1_foregroundBlur_238_1059"/>
</filter>
<filter id="filter1_f_238_1059" x="-640" y="-515" width="1470" height="1495" filterUnits="userSpaceOnUse" color-interpolation-filters="sRGB">
<feFlood flood-opacity="0" result="BackgroundImageFix"/>
<feBlend mode="normal" in="SourceGraphic" in2="BackgroundImageFix" result="shape"/>
<feGaussianBlur stdDeviation="247" result="effect1_foregroundBlur_238_1059"/>
</filter>
<filter id="filter2_f_238_1059" x="-399" y="-176" width="1921" height="1956" filterUnits="userSpaceOnUse" color-interpolation-filters="sRGB">
<feFlood flood-opacity="0" result="BackgroundImageFix"/>
<feBlend mode="normal" in="SourceGraphic" in2="BackgroundImageFix" result="shape"/>
<feGaussianBlur stdDeviation="312" result="effect1_foregroundBlur_238_1059"/>
</filter>
<filter id="filter3_f_238_1059" x="-607.889" y="997" width="1637.9" height="1658.17" filterUnits="userSpaceOnUse" color-interpolation-filters="sRGB">
<feFlood flood-opacity="0" result="BackgroundImageFix"/>
<feBlend mode="normal" in="SourceGraphic" in2="BackgroundImageFix" result="shape"/>
<feGaussianBlur stdDeviation="312" result="effect1_foregroundBlur_238_1059"/>
</filter>
<filter id="filter4_f_238_1059" x="-486" y="1490.83" width="1377.9" height="1398.17" filterUnits="userSpaceOnUse" color-interpolation-filters="sRGB">
<feFlood flood-opacity="0" result="BackgroundImageFix"/>
<feBlend mode="normal" in="SourceGraphic" in2="BackgroundImageFix" result="shape"/>
<feGaussianBlur stdDeviation="247" result="effect1_foregroundBlur_238_1059"/>
</filter>
<linearGradient id="paint0_linear_238_1059" x1="-356.108" y1="2657.95" x2="73.2361" y2="2837.78" gradientUnits="userSpaceOnUse">
<stop stop-color="#728C69"/>
<stop offset="1" stop-color="#E1EEDA"/>
</linearGradient>
<linearGradient id="paint1_linear_238_1059" x1="-60.8498" y1="1.16227" x2="246.632" y2="129.965" gradientUnits="userSpaceOnUse">
<stop stop-color="#618280"/>
<stop offset="1" stop-color="#E1EEDA"/>
</linearGradient>
<linearGradient id="paint2_linear_238_1059" x1="-138.476" y1="-127.069" x2="-49.9349" y2="250.741" gradientUnits="userSpaceOnUse">
<stop stop-color="#5B7D7E"/>
<stop offset="1" stop-color="#5B7D7E" stop-opacity="0.2"/>
</linearGradient>
<linearGradient id="paint3_linear_238_1059" x1="343.892" y1="478.948" x2="773.236" y2="658.775" gradientUnits="userSpaceOnUse">
<stop stop-color="#728C69"/>
<stop offset="1" stop-color="#E1EEDA"/>
</linearGradient>
<linearGradient id="paint4_linear_238_1059" x1="549.924" y1="382.928" x2="884.671" y2="1197.53" gradientUnits="userSpaceOnUse">
<stop stop-color="#A9BDA1"/>
<stop offset="1" stop-color="#A9BDA1" stop-opacity="0.2"/>
</linearGradient>
<linearGradient id="paint5_linear_238_1059" x1="84.9906" y1="1638.93" x2="333.727" y2="1743.11" gradientUnits="userSpaceOnUse">
<stop stop-color="#728C69"/>
<stop offset="1" stop-color="#E1EEDA"/>
</linearGradient>
<linearGradient id="paint6_linear_238_1059" x1="76.8792" y1="2002.76" x2="325.616" y2="2106.94" gradientUnits="userSpaceOnUse">
<stop stop-color="#618280"/>
<stop offset="1" stop-color="#E1EEDA"/>
</linearGradient>
<linearGradient id="paint7_linear_238_1059" x1="27.1156" y1="2358.85" x2="459.097" y2="2440.34" gradientUnits="userSpaceOnUse">
<stop stop-color="#5B7D7E"/>
<stop offset="1" stop-color="#5B7D7E" stop-opacity="0.2"/>
</linearGradient>
<linearGradient id="paint8_linear_238_1059" x1="406.663" y1="2175.04" x2="511.688" y2="2715.64" gradientUnits="userSpaceOnUse">
<stop stop-color="#A9BDA1"/>
<stop offset="1" stop-color="#A9BDA1" stop-opacity="0.2"/>
</linearGradient>
<clipPath id="clip0_238_1059">
<rect width="412" height="2537" fill="white"/>
</clipPath>
</defs>
</svg>
