<svg width="55" height="55" viewBox="0 0 55 55" fill="none" xmlns="http://www.w3.org/2000/svg">
<path d="M27.2621 0C12.2288 0 0 12.2288 0 27.2621C0 42.2955 12.2288 54.5243 27.2621 54.5243C42.2955 54.5243 54.5243 42.2955 54.5243 27.2621C54.5243 12.2288 42.2927 0 27.2621 0ZM26.4358 44.619C25.3717 39.9664 26.7244 36.9042 27.0357 35.5231C28.6149 29.4413 34.8043 26.2801 41.1975 24.4519C33.8704 27.3612 28.6149 33.0129 27.6697 39.4117C26.9395 43.3568 30.463 48.9887 30.3696 46.6397C29.8885 34.4902 48.8415 35.3307 47.4519 17.6484C47.4321 17.3993 46.9821 16.2305 46.8491 16.4456C41.5569 25.1085 29.8856 20.6567 26.8801 31.5441C26.8546 31.6318 26.8376 31.7308 26.8178 31.8327C24.6726 20.4841 10.893 16.8588 3.89702 22.867C3.83193 22.9236 3.87155 23.1274 3.96494 23.1274C13.8929 23.1076 15.0221 34.9798 22.0831 28.7847C21.1379 25.5556 17.8719 22.7284 13.5561 21.7831C17.0965 22.1397 20.0936 23.7415 21.7265 25.9688V25.9631C23.7359 28.3291 24.9953 31.9771 24.5906 35.5486C24.4858 36.4797 21.0558 44.2511 28.6121 51.6603C14.6258 52.4244 2.8131 41.3078 2.8131 27.2537C2.8131 13.1995 13.7598 2.80461 27.2621 2.80461C40.7645 2.80461 51.7084 13.7485 51.7084 27.2508C51.7084 37.4221 45.4426 46.4444 36.0269 50.0641C31.7761 50.6358 28.6149 49.4075 26.4358 44.6218V44.619Z" fill="url(#paint0_linear_1_237)"/>
<defs>
<linearGradient id="paint0_linear_1_237" x1="27.2621" y1="0" x2="27.2621" y2="54.5243" gradientUnits="userSpaceOnUse">
<stop stop-color="#5B7D7E"/>
<stop offset="0.817308" stop-color="#728C69"/>
</linearGradient>
</defs>
</svg>
