<svg width="55" height="55" viewBox="0 0 55 55" fill="none" xmlns="http://www.w3.org/2000/svg">
<g clip-path="url(#clip0_170_131)">
<path d="M37.799 45.887L35.8399 45.5001C35.4656 45.4261 35.2208 45.0634 35.2912 44.688C36.2766 39.4587 36.3828 35.8488 35.6308 33.3641C34.9747 31.1959 33.6463 29.745 31.0472 28.3589C24.9896 25.1279 23.0155 20.2902 22.4252 16.8005C21.9712 14.1124 22.2554 11.8114 22.4645 10.684C22.5384 10.2831 22.9392 10.0313 23.332 10.1387L25.8941 10.8399L24.2596 10.3929L25.2645 10.6643C25.6122 10.7579 25.8294 11.0998 25.7693 11.4544C25.6122 12.3774 25.4078 14.2314 25.7878 16.3592C26.489 20.2867 28.7958 23.3178 32.6425 25.3693C36.0317 27.1771 37.9527 29.3396 38.8745 32.3822C39.8032 35.4491 39.7258 39.4621 38.618 45.3326C38.5464 45.7126 38.1779 45.9621 37.799 45.887Z" fill="url(#paint0_linear_170_131)"/>
<path d="M30.0393 48.1465L28.1298 47.5632C27.7648 47.4523 27.558 47.0653 27.6666 46.6991C29.1117 41.8071 29.5633 38.3763 29.0493 36.2254C28.6692 34.6371 27.8006 33.7499 25.8438 32.9529C20.2055 30.6553 18.3688 27.0143 17.8213 24.3643C17.4135 22.3914 17.6457 20.7025 17.8548 19.7738C17.946 19.3695 18.3711 19.1373 18.7616 19.2736L21.259 20.1446L21.2624 20.1342C21.2567 20.1504 20.7149 21.8173 21.1677 23.8133C21.7603 26.4286 23.7645 28.4478 27.1225 29.8166C29.1232 30.6322 31.5248 32.008 32.3449 35.4387C33.0091 38.2169 32.554 42.1178 30.9114 47.6775C30.8017 48.0483 30.4101 48.2597 30.0404 48.1465H30.0393Z" fill="url(#paint1_linear_170_131)"/>
<path d="M21.5558 34.1889C19.8046 34.1889 18.2474 33.8839 16.9629 33.4877C14.4539 32.7138 12.5999 31.4847 11.7093 30.8124C11.3836 30.5663 11.3385 30.0962 11.6111 29.7924L12.9511 28.3011C13.1902 28.0343 13.5922 27.995 13.881 28.2052C14.611 28.7377 16.1035 29.6965 18.0822 30.2868C19.2501 30.6345 20.4122 30.8089 21.565 30.8089C24.0613 30.8089 26.516 29.9957 28.9002 28.375C32.3414 26.0347 34.0106 22.1742 33.8604 16.8986C33.7715 13.7751 33.0426 11.0293 32.6798 9.83954C32.5713 9.48606 32.7584 9.10833 33.1061 8.98126L34.9844 8.29395C35.3575 8.15764 35.7687 8.3598 35.8877 8.73984C36.3001 10.0625 37.1295 13.1282 37.245 16.7069C37.4529 23.1676 35.2258 28.1717 30.8062 31.1763C27.4586 33.453 24.2738 34.1889 21.5558 34.1889Z" fill="url(#paint2_linear_170_131)"/>
<path d="M29.6625 17.7072C31.1604 17.7072 32.3748 16.4929 32.3748 14.995C32.3748 13.497 31.1604 12.2827 29.6625 12.2827C28.1645 12.2827 26.9502 13.497 26.9502 14.995C26.9502 16.4929 28.1645 17.7072 29.6625 17.7072Z" fill="url(#paint3_linear_170_131)"/>
<path d="M46.9452 8.05484C41.7505 2.86014 34.845 0 27.4994 0C20.1538 0 13.2484 2.86014 8.05484 8.05484C2.8613 13.2495 0 20.1538 0 27.4994C0 34.845 2.86014 41.7505 8.05484 46.9452C13.2484 52.1387 20.155 55 27.5006 55C34.8462 55 41.7516 52.1399 46.9463 46.9452C52.141 41.7505 55.0012 34.845 55.0012 27.4994C55.0012 20.1538 52.141 13.2484 46.9463 8.05368L46.9452 8.05484ZM27.4994 2.13933C34.2732 2.13933 40.6415 4.77769 45.4319 9.56693C50.2223 14.3573 52.8595 20.7256 52.8595 27.4994C52.8595 34.2732 50.2212 40.6415 45.4319 45.4319C40.6415 50.2212 34.2732 52.8595 27.4994 52.8595C20.7256 52.8595 14.3573 50.2212 9.56693 45.4319C4.77653 40.6415 2.13933 34.2732 2.13933 27.4994C2.13933 20.7256 4.77769 14.3573 9.56693 9.56693C14.3573 4.77769 20.7256 2.13933 27.4994 2.13933Z" fill="url(#paint4_linear_170_131)"/>
</g>
<defs>
<linearGradient id="paint0_linear_170_131" x1="30.8489" y1="10.1139" x2="30.8489" y2="45.9004" gradientUnits="userSpaceOnUse">
<stop stop-color="#5B7D7E"/>
<stop offset="0.817308" stop-color="#728C69"/>
</linearGradient>
<linearGradient id="paint1_linear_170_131" x1="25.1177" y1="19.2345" x2="25.1177" y2="48.1771" gradientUnits="userSpaceOnUse">
<stop stop-color="#5B7D7E"/>
<stop offset="0.817308" stop-color="#728C69"/>
</linearGradient>
<linearGradient id="paint2_linear_170_131" x1="24.3455" y1="8.25137" x2="24.3455" y2="34.1889" gradientUnits="userSpaceOnUse">
<stop stop-color="#5B7D7E"/>
<stop offset="0.817308" stop-color="#728C69"/>
</linearGradient>
<linearGradient id="paint3_linear_170_131" x1="29.6625" y1="12.2827" x2="29.6625" y2="17.7072" gradientUnits="userSpaceOnUse">
<stop stop-color="#5B7D7E"/>
<stop offset="0.817308" stop-color="#728C69"/>
</linearGradient>
<linearGradient id="paint4_linear_170_131" x1="27.5006" y1="0" x2="27.5006" y2="55" gradientUnits="userSpaceOnUse">
<stop stop-color="#5B7D7E"/>
<stop offset="0.817308" stop-color="#728C69"/>
</linearGradient>
<clipPath id="clip0_170_131">
<rect width="55" height="55" fill="white"/>
</clipPath>
</defs>
</svg>
