<svg width="192" height="55" viewBox="0 0 192 55" fill="none" xmlns="http://www.w3.org/2000/svg">
<path d="M186.089 18.3474H191.192V19.5524H186.089V18.3474ZM186.216 22.756H192V23.9893H184.799V14.0664H191.802V15.2997H186.216V22.756Z" fill="white"/>
<path d="M178.451 23.9893V15.2997H175.049V14.0664H183.256V15.2997H179.854V23.9893H178.451Z" fill="white"/>
<path d="M165.094 23.9893L169.587 14.0664H170.991L175.499 23.9893H174.01L169.999 14.8602H170.566L166.554 23.9893H165.094ZM167.007 21.5086L167.39 20.3745H172.975L173.386 21.5086H167.007Z" fill="white"/>
<path d="M155.092 23.9893V14.0664H156.254L162.817 22.2174H162.208V14.0664H163.626V23.9893H162.463L155.9 15.8384H156.509V23.9893H155.092Z" fill="white"/>
<path d="M147.666 24.1048C146.91 24.1048 146.206 23.9772 145.554 23.7221C144.912 23.4669 144.354 23.1125 143.882 22.6589C143.409 22.1958 143.04 21.6571 142.776 21.0429C142.511 20.4286 142.379 19.7576 142.379 19.0299C142.379 18.3023 142.511 17.6313 142.776 17.017C143.04 16.4027 143.409 15.8688 143.882 15.4152C144.354 14.9521 144.912 14.593 145.554 14.3378C146.197 14.0827 146.901 13.9551 147.666 13.9551C148.422 13.9551 149.117 14.0827 149.75 14.3378C150.393 14.5835 150.95 14.9379 151.423 15.401C151.905 15.8546 152.273 16.3886 152.529 17.0028C152.793 17.6171 152.926 18.2928 152.926 19.0299C152.926 19.7671 152.793 20.4428 152.529 21.057C152.273 21.6713 151.905 22.21 151.423 22.6731C150.95 23.1267 150.393 23.4811 149.75 23.7362C149.117 23.9819 148.422 24.1048 147.666 24.1048ZM147.666 22.8432C148.215 22.8432 148.72 22.7487 149.183 22.5597C149.656 22.3706 150.062 22.106 150.402 21.7658C150.752 21.4162 151.021 21.0098 151.21 20.5467C151.409 20.0837 151.508 19.5781 151.508 19.0299C151.508 18.4818 151.409 17.9762 151.21 17.5131C151.021 17.0501 150.752 16.6484 150.402 16.3082C150.062 15.9586 149.656 15.6892 149.183 15.5002C148.72 15.3112 148.215 15.2167 147.666 15.2167C147.109 15.2167 146.594 15.3112 146.121 15.5002C145.658 15.6892 145.252 15.9586 144.902 16.3082C144.552 16.6484 144.278 17.0501 144.08 17.5131C143.891 17.9762 143.796 18.4818 143.796 19.0299C143.796 19.5781 143.891 20.0837 144.08 20.5467C144.278 21.0098 144.552 21.4162 144.902 21.7658C145.252 22.106 145.658 22.3706 146.121 22.5597C146.594 22.7487 147.109 22.8432 147.666 22.8432Z" fill="white"/>
<path d="M138.799 23.9893V14.0664H140.216V23.9893H138.799Z" fill="white"/>
<path d="M132.887 24.1048C132.131 24.1048 131.408 23.9914 130.718 23.7646C130.028 23.5283 129.485 23.2259 129.088 22.8573L129.612 21.7516C129.99 22.0824 130.472 22.3565 131.058 22.5738C131.644 22.7912 132.254 22.8999 132.887 22.8999C133.463 22.8999 133.931 22.8337 134.29 22.7014C134.649 22.5691 134.914 22.3895 135.084 22.1627C135.254 21.9265 135.339 21.6619 135.339 21.3689C135.339 21.0287 135.226 20.7546 134.999 20.5467C134.782 20.3388 134.494 20.1734 134.134 20.0506C133.785 19.9183 133.397 19.8049 132.972 19.7104C132.547 19.6159 132.117 19.5072 131.682 19.3843C131.257 19.252 130.865 19.0866 130.505 18.8882C130.156 18.6897 129.872 18.4251 129.655 18.0943C129.438 17.7541 129.329 17.3194 129.329 16.7902C129.329 16.2799 129.461 15.8121 129.726 15.3868C130 14.9521 130.416 14.6072 130.973 14.352C131.54 14.0874 132.258 13.9551 133.128 13.9551C133.704 13.9551 134.276 14.0307 134.843 14.1819C135.41 14.3331 135.902 14.5505 136.317 14.834L135.85 15.968C135.424 15.6845 134.975 15.4813 134.503 15.3585C134.03 15.2262 133.572 15.16 133.128 15.16C132.57 15.16 132.112 15.2309 131.753 15.3726C131.394 15.5144 131.129 15.7034 130.959 15.9397C130.798 16.1759 130.718 16.4405 130.718 16.7335C130.718 17.0832 130.827 17.3619 131.044 17.5699C131.271 17.7778 131.559 17.9431 131.909 18.066C132.268 18.1889 132.66 18.3023 133.085 18.4062C133.511 18.5007 133.936 18.6094 134.361 18.7322C134.796 18.8551 135.188 19.0158 135.538 19.2142C135.897 19.4127 136.185 19.6773 136.402 20.0081C136.62 20.3388 136.729 20.7641 136.729 21.2839C136.729 21.7847 136.591 22.2525 136.317 22.6872C136.043 23.1125 135.618 23.4574 135.042 23.7221C134.475 23.9772 133.756 24.1048 132.887 24.1048Z" fill="white"/>
<path d="M124.082 24.1048C123.326 24.1048 122.603 23.9914 121.913 23.7646C121.224 23.5283 120.68 23.2259 120.283 22.8573L120.808 21.7516C121.186 22.0824 121.668 22.3565 122.254 22.5738C122.84 22.7912 123.449 22.8999 124.082 22.8999C124.659 22.8999 125.127 22.8337 125.486 22.7014C125.845 22.5691 126.109 22.3895 126.279 22.1627C126.45 21.9265 126.535 21.6619 126.535 21.3689C126.535 21.0287 126.421 20.7546 126.194 20.5467C125.977 20.3388 125.689 20.1734 125.33 20.0506C124.98 19.9183 124.593 19.8049 124.167 19.7104C123.742 19.6159 123.312 19.5072 122.877 19.3843C122.452 19.252 122.06 19.0866 121.701 18.8882C121.351 18.6897 121.068 18.4251 120.85 18.0943C120.633 17.7541 120.524 17.3194 120.524 16.7902C120.524 16.2799 120.656 15.8121 120.921 15.3868C121.195 14.9521 121.611 14.6072 122.169 14.352C122.736 14.0874 123.454 13.9551 124.323 13.9551C124.9 13.9551 125.471 14.0307 126.038 14.1819C126.606 14.3331 127.097 14.5505 127.513 14.834L127.045 15.968C126.62 15.6845 126.171 15.4813 125.698 15.3585C125.226 15.2262 124.767 15.16 124.323 15.16C123.766 15.16 123.307 15.2309 122.948 15.3726C122.589 15.5144 122.324 15.7034 122.154 15.9397C121.994 16.1759 121.913 16.4405 121.913 16.7335C121.913 17.0832 122.022 17.3619 122.239 17.5699C122.466 17.7778 122.754 17.9431 123.104 18.066C123.463 18.1889 123.855 18.3023 124.281 18.4062C124.706 18.5007 125.131 18.6094 125.557 18.7322C125.991 18.8551 126.383 19.0158 126.733 19.2142C127.092 19.4127 127.38 19.6773 127.598 20.0081C127.815 20.3388 127.924 20.7641 127.924 21.2839C127.924 21.7847 127.787 22.2525 127.513 22.6872C127.239 23.1125 126.813 23.4574 126.237 23.7221C125.67 23.9772 124.952 24.1048 124.082 24.1048Z" fill="white"/>
<path d="M109.305 23.9893L113.798 14.0664H115.202L119.71 23.9893H118.221L114.209 14.8602H114.776L110.765 23.9893H109.305ZM111.218 21.5086L111.601 20.3745H117.186L117.597 21.5086H111.218Z" fill="white"/>
<path d="M101.213 23.9893V14.0664H105.083C105.952 14.0664 106.694 14.2034 107.308 14.4775C107.923 14.7516 108.395 15.1485 108.726 15.6682C109.057 16.188 109.222 16.807 109.222 17.5252C109.222 18.2435 109.057 18.8625 108.726 19.3822C108.395 19.8926 107.923 20.2895 107.308 20.573C106.694 20.8471 105.952 20.9841 105.083 20.9841H101.993L102.63 20.3178V23.9893H101.213ZM102.63 20.4596L101.993 19.7508H105.04C105.948 19.7508 106.633 19.5571 107.096 19.1696C107.568 18.7822 107.805 18.234 107.805 17.5252C107.805 16.8165 107.568 16.2683 107.096 15.8809C106.633 15.4934 105.948 15.2997 105.04 15.2997H101.993L102.63 14.5909V20.4596Z" fill="white"/>
<path d="M87.6738 23.9893V14.0664H88.8362L93.2874 21.5653H92.6636L97.0581 14.0664H98.2205L98.2346 23.9893H96.8738L96.8596 16.2069H97.1856L93.2732 22.7844H92.6211L88.6803 16.2069H89.0347V23.9893H87.6738Z" fill="white"/>
<path d="M80.2484 24.1048C79.4924 24.1048 78.7883 23.9772 78.1363 23.7221C77.4936 23.4669 76.9361 23.1125 76.4635 22.6589C75.991 22.1958 75.6225 21.6571 75.3579 21.0429C75.0932 20.4286 74.9609 19.7576 74.9609 19.0299C74.9609 18.3023 75.0932 17.6313 75.3579 17.017C75.6225 16.4027 75.991 15.8688 76.4635 15.4152C76.9361 14.9521 77.4936 14.593 78.1363 14.3378C78.7789 14.0827 79.4829 13.9551 80.2484 13.9551C81.0045 13.9551 81.6991 14.0827 82.3322 14.3378C82.9749 14.5835 83.5324 14.9379 84.005 15.401C84.4869 15.8546 84.8555 16.3886 85.1107 17.0028C85.3753 17.6171 85.5076 18.2928 85.5076 19.0299C85.5076 19.7671 85.3753 20.4428 85.1107 21.057C84.8555 21.6713 84.4869 22.21 84.005 22.6731C83.5324 23.1267 82.9749 23.4811 82.3322 23.7362C81.6991 23.9819 81.0045 24.1048 80.2484 24.1048ZM80.2484 22.8432C80.7966 22.8432 81.3021 22.7487 81.7652 22.5597C82.2377 22.3706 82.6441 22.106 82.9843 21.7658C83.334 21.4162 83.6033 21.0098 83.7923 20.5467C83.9908 20.0837 84.09 19.5781 84.09 19.0299C84.09 18.4818 83.9908 17.9762 83.7923 17.5131C83.6033 17.0501 83.334 16.6484 82.9843 16.3082C82.6441 15.9586 82.2377 15.6892 81.7652 15.5002C81.3021 15.3112 80.7966 15.2167 80.2484 15.2167C79.6909 15.2167 79.1758 15.3112 78.7033 15.5002C78.2402 15.6892 77.8339 15.9586 77.4842 16.3082C77.1345 16.6484 76.8605 17.0501 76.662 17.5131C76.473 17.9762 76.3785 18.4818 76.3785 19.0299C76.3785 19.5781 76.473 20.0837 76.662 20.5467C76.8605 21.0098 77.1345 21.4162 77.4842 21.7658C77.8339 22.106 78.2402 22.3706 78.7033 22.5597C79.1758 22.7487 79.6909 22.8432 80.2484 22.8432Z" fill="white"/>
<path d="M70.1688 24.1048C69.4128 24.1048 68.7134 23.9819 68.0708 23.7362C67.4376 23.4811 66.8848 23.1267 66.4123 22.6731C65.9492 22.21 65.5854 21.6713 65.3207 21.057C65.0561 20.4428 64.9238 19.7671 64.9238 19.0299C64.9238 18.2928 65.0561 17.6171 65.3207 17.0028C65.5854 16.3886 65.9539 15.8546 66.4264 15.401C66.899 14.9379 67.4518 14.5835 68.085 14.3378C68.7276 14.0827 69.4269 13.9551 70.183 13.9551C70.9485 13.9551 71.6525 14.0874 72.2951 14.352C72.9472 14.6072 73.5001 14.9899 73.9537 15.5002L73.0323 16.3933C72.6542 15.9964 72.229 15.7034 71.7565 15.5144C71.2839 15.3159 70.7783 15.2167 70.2397 15.2167C69.6821 15.2167 69.1623 15.3112 68.6804 15.5002C68.2078 15.6892 67.7967 15.9538 67.4471 16.294C67.0974 16.6343 66.8234 17.0406 66.6249 17.5131C66.4359 17.9762 66.3414 18.4818 66.3414 19.0299C66.3414 19.5781 66.4359 20.0884 66.6249 20.5609C66.8234 21.024 67.0974 21.4256 67.4471 21.7658C67.7967 22.106 68.2078 22.3706 68.6804 22.5597C69.1623 22.7487 69.6821 22.8432 70.2397 22.8432C70.7783 22.8432 71.2839 22.7487 71.7565 22.5597C72.229 22.3612 72.6542 22.0588 73.0323 21.6524L73.9537 22.5455C73.5001 23.0558 72.9472 23.4433 72.2951 23.7079C71.6525 23.9725 70.9437 24.1048 70.1688 24.1048Z" fill="white"/>
<path d="M184.855 41.6617C184.052 41.6617 183.31 41.5388 182.63 41.2931C181.959 41.038 181.373 40.6788 180.872 40.2158C180.38 39.7527 179.998 39.2046 179.724 38.5714C179.45 37.9382 179.312 37.2389 179.312 36.4734C179.312 35.7079 179.45 35.0086 179.724 34.3754C179.998 33.7423 180.385 33.1941 180.886 32.7311C181.387 32.268 181.978 31.9136 182.658 31.6679C183.348 31.4127 184.104 31.2852 184.926 31.2852C185.909 31.2852 186.783 31.4505 187.549 31.7813C188.323 32.1121 188.961 32.5846 189.462 33.1989L187.322 35.0842C187.01 34.7251 186.67 34.4558 186.301 34.2762C185.942 34.0872 185.54 33.9927 185.096 33.9927C184.728 33.9927 184.392 34.0494 184.09 34.1628C183.797 34.2762 183.546 34.4416 183.338 34.6589C183.13 34.8763 182.97 35.1362 182.856 35.4386C182.743 35.741 182.686 36.086 182.686 36.4734C182.686 36.842 182.743 37.1822 182.856 37.4941C182.97 37.7965 183.13 38.0564 183.338 38.2737C183.546 38.4911 183.792 38.6612 184.075 38.784C184.368 38.8974 184.694 38.9541 185.054 38.9541C185.432 38.9541 185.8 38.8927 186.159 38.7699C186.518 38.6376 186.901 38.4155 187.308 38.1036L189.179 40.4001C188.574 40.8064 187.884 41.1183 187.109 41.3356C186.334 41.553 185.583 41.6617 184.855 41.6617ZM186.273 39.9748V36.2041H189.179V40.4001L186.273 39.9748Z" fill="white"/>
<path d="M162.504 41.4346V31.5117H165.254L170.3 37.5505H169.025V31.5117H172.285V41.4346H169.535L164.488 35.3958H165.764V41.4346H162.504Z" fill="white"/>
<path d="M151.736 41.4346V31.5117H155.082V41.4346H151.736Z" fill="white"/>
<path d="M140.967 31.5117H144.312V41.4346H140.967V31.5117ZM137.877 41.4346H134.531V31.5117H137.877V41.4346ZM141.194 37.7773H137.65V35.0273H141.194V37.7773Z" fill="white"/>
<path d="M123.302 41.6617C122.508 41.6617 121.771 41.5388 121.091 41.2931C120.42 41.038 119.834 40.6788 119.333 40.2158C118.841 39.7527 118.459 39.2046 118.185 38.5714C117.91 37.9382 117.773 37.2389 117.773 36.4734C117.773 35.7079 117.91 35.0086 118.185 34.3754C118.459 33.7423 118.841 33.1941 119.333 32.7311C119.834 32.268 120.42 31.9136 121.091 31.6679C121.771 31.4127 122.508 31.2852 123.302 31.2852C124.275 31.2852 125.135 31.4553 125.882 31.7955C126.638 32.1357 127.262 32.6271 127.753 33.2697L125.641 35.1551C125.348 34.7865 125.022 34.503 124.663 34.3046C124.313 34.0966 123.916 33.9927 123.472 33.9927C123.122 33.9927 122.806 34.0494 122.522 34.1628C122.239 34.2762 121.993 34.4416 121.785 34.6589C121.587 34.8763 121.431 35.1409 121.317 35.4528C121.204 35.7552 121.147 36.0954 121.147 36.4734C121.147 36.8514 121.204 37.1964 121.317 37.5082C121.431 37.8107 121.587 38.0705 121.785 38.2879C121.993 38.5053 122.239 38.6706 122.522 38.784C122.806 38.8974 123.122 38.9541 123.472 38.9541C123.916 38.9541 124.313 38.8549 124.663 38.6565C125.022 38.4486 125.348 38.1603 125.641 37.7917L127.753 39.6771C127.262 40.3103 126.638 40.8017 125.882 41.1514C125.135 41.4916 124.275 41.6617 123.302 41.6617Z" fill="white"/>
<path d="M100 41.4346L104.338 31.5117H107.626L111.964 41.4346H108.505L105.302 33.0994H106.606L103.402 41.4346H100ZM102.58 39.7052L103.43 37.2954H107.995L108.846 39.7052H102.58Z" fill="white"/>
<path d="M88.5876 41.6617C87.7844 41.6617 87.0378 41.5341 86.3479 41.2789C85.6675 41.0238 85.0768 40.6647 84.5759 40.2016C84.0751 39.7291 83.6829 39.1762 83.3994 38.5431C83.1253 37.9099 82.9883 37.22 82.9883 36.4734C82.9883 35.7174 83.1253 35.0275 83.3994 34.4038C83.6829 33.7706 84.0751 33.2225 84.5759 32.7594C85.0768 32.2869 85.6675 31.9231 86.3479 31.6679C87.0378 31.4127 87.7844 31.2852 88.5876 31.2852C89.4004 31.2852 90.147 31.4127 90.8274 31.6679C91.5078 31.9231 92.0985 32.2869 92.5993 32.7594C93.1002 33.2225 93.4877 33.7706 93.7617 34.4038C94.0452 35.0275 94.187 35.7174 94.187 36.4734C94.187 37.22 94.0452 37.9099 93.7617 38.5431C93.4877 39.1762 93.1002 39.7291 92.5993 40.2016C92.0985 40.6647 91.5078 41.0238 90.8274 41.2789C90.147 41.5341 89.4004 41.6617 88.5876 41.6617ZM88.5876 38.9541C88.8995 38.9541 89.1877 38.8974 89.4523 38.784C89.7264 38.6706 89.9627 38.51 90.1611 38.3021C90.369 38.0847 90.5297 37.8248 90.6431 37.5224C90.7565 37.2106 90.8132 36.8609 90.8132 36.4734C90.8132 36.086 90.7565 35.741 90.6431 35.4386C90.5297 35.1267 90.369 34.8669 90.1611 34.6589C89.9627 34.4416 89.7264 34.2762 89.4523 34.1628C89.1877 34.0494 88.8995 33.9927 88.5876 33.9927C88.2758 33.9927 87.9828 34.0494 87.7087 34.1628C87.4441 34.2762 87.2079 34.4416 87 34.6589C86.8015 34.8669 86.6456 35.1267 86.5322 35.4386C86.4188 35.741 86.3621 36.086 86.3621 36.4734C86.3621 36.8609 86.4188 37.2106 86.5322 37.5224C86.6456 37.8248 86.8015 38.0847 87 38.3021C87.2079 38.51 87.4441 38.6706 87.7087 38.784C87.9828 38.8974 88.2758 38.9541 88.5876 38.9541Z" fill="white"/>
<path d="M72.3664 41.6617C71.5725 41.6617 70.8354 41.5388 70.155 41.2931C69.484 41.038 68.8981 40.6788 68.3972 40.2158C67.9058 39.7527 67.523 39.2046 67.249 38.5714C66.9749 37.9382 66.8379 37.2389 66.8379 36.4734C66.8379 35.7079 66.9749 35.0086 67.249 34.3754C67.523 33.7423 67.9058 33.1941 68.3972 32.7311C68.8981 32.268 69.484 31.9136 70.155 31.6679C70.8354 31.4127 71.5725 31.2852 72.3664 31.2852C73.3398 31.2852 74.1997 31.4553 74.9463 31.7955C75.7024 32.1357 76.3261 32.6271 76.8175 33.2697L74.7053 35.1551C74.4124 34.7865 74.0863 34.503 73.7272 34.3046C73.3776 34.0966 72.9806 33.9927 72.5365 33.9927C72.1868 33.9927 71.8702 34.0494 71.5867 34.1628C71.3032 34.2762 71.0575 34.4416 70.8496 34.6589C70.6511 34.8763 70.4952 35.1409 70.3818 35.4528C70.2684 35.7552 70.2117 36.0954 70.2117 36.4734C70.2117 36.8514 70.2684 37.1964 70.3818 37.5082C70.4952 37.8107 70.6511 38.0705 70.8496 38.2879C71.0575 38.5053 71.3032 38.6706 71.5867 38.784C71.8702 38.8974 72.1868 38.9541 72.5365 38.9541C72.9806 38.9541 73.3776 38.8549 73.7272 38.6565C74.0863 38.4486 74.4124 38.1603 74.7053 37.7917L76.8175 39.6771C76.3261 40.3103 75.7024 40.8017 74.9463 41.1514C74.1997 41.4916 73.3398 41.6617 72.3664 41.6617Z" fill="white"/>
<g clip-path="url(#clip0_49_1466)">
<path d="M37.799 45.8869L35.8399 45.5C35.4656 45.426 35.2208 45.0633 35.2912 44.6879C36.2766 39.4585 36.3828 35.8487 35.6308 33.364C34.9747 31.1958 33.6463 29.7449 31.0472 28.3587C24.9896 25.1278 23.0155 20.29 22.4252 16.8003C21.9712 14.1123 22.2554 11.8113 22.4645 10.6838C22.5384 10.283 22.9392 10.0312 23.332 10.1386L25.8941 10.8398L24.2596 10.3927L25.2645 10.6642C25.6122 10.7578 25.8294 11.0997 25.7693 11.4543C25.6122 12.3773 25.4078 14.2313 25.7878 16.3591C26.489 20.2866 28.7958 23.3177 32.6425 25.3692C36.0317 27.177 37.9527 29.3395 38.8745 32.3821C39.8032 35.449 39.7258 39.462 38.618 45.3325C38.5464 45.7125 38.1779 45.962 37.799 45.8869Z" fill="white"/>
<path d="M30.0393 48.1464L28.1298 47.5631C27.7648 47.4522 27.558 47.0652 27.6666 46.699C29.1117 41.807 29.5633 38.3762 29.0493 36.2253C28.6692 34.637 27.8006 33.7498 25.8438 32.9528C20.2055 30.6552 18.3688 27.0142 17.8213 24.3643C17.4135 22.3913 17.6457 20.7025 17.8548 19.7737C17.946 19.3694 18.3711 19.1372 18.7616 19.2735L21.259 20.1445L21.2624 20.1341C21.2567 20.1503 20.7149 21.8172 21.1677 23.8133C21.7603 26.4285 23.7645 28.4477 27.1225 29.8166C29.1232 30.6321 31.5248 32.0079 32.3449 35.4387C33.0091 38.2168 32.554 42.1177 30.9114 47.6774C30.8017 48.0482 30.4101 48.2596 30.0404 48.1464H30.0393Z" fill="white"/>
<path d="M21.5558 34.189C19.8046 34.189 18.2474 33.884 16.9629 33.4878C14.4539 32.7139 12.5999 31.4848 11.7093 30.8125C11.3836 30.5664 11.3385 30.0963 11.6111 29.7925L12.9511 28.3012C13.1902 28.0344 13.5922 27.9951 13.881 28.2053C14.611 28.7378 16.1035 29.6966 18.0822 30.2869C19.2501 30.6346 20.4122 30.809 21.565 30.809C24.0613 30.809 26.516 29.9958 28.9002 28.3751C32.3414 26.0348 34.0106 22.1743 33.8604 16.8987C33.7715 13.7752 33.0426 11.0294 32.6798 9.83964C32.5713 9.48616 32.7584 9.10843 33.1061 8.98136L34.9844 8.29405C35.3575 8.15774 35.7687 8.35989 35.8877 8.73994C36.3001 10.0626 37.1295 13.1283 37.245 16.707C37.4529 23.1677 35.2258 28.1718 30.8062 31.1764C27.4586 33.4531 24.2738 34.189 21.5558 34.189Z" fill="white"/>
<path d="M29.6625 17.7073C31.1604 17.7073 32.3748 16.493 32.3748 14.995C32.3748 13.497 31.1604 12.2827 29.6625 12.2827C28.1645 12.2827 26.9502 13.497 26.9502 14.995C26.9502 16.493 28.1645 17.7073 29.6625 17.7073Z" fill="white"/>
<path d="M46.9452 8.05484C41.7505 2.86014 34.845 0 27.4994 0C20.1538 0 13.2484 2.86014 8.05484 8.05484C2.8613 13.2495 0 20.1538 0 27.4994C0 34.845 2.86014 41.7505 8.05484 46.9452C13.2484 52.1387 20.155 55 27.5006 55C34.8462 55 41.7516 52.1399 46.9463 46.9452C52.141 41.7505 55.0012 34.845 55.0012 27.4994C55.0012 20.1538 52.141 13.2484 46.9463 8.05368L46.9452 8.05484ZM27.4994 2.13933C34.2732 2.13933 40.6415 4.77769 45.4319 9.56693C50.2223 14.3573 52.8595 20.7256 52.8595 27.4994C52.8595 34.2732 50.2212 40.6415 45.4319 45.4319C40.6415 50.2212 34.2732 52.8595 27.4994 52.8595C20.7256 52.8595 14.3573 50.2212 9.56693 45.4319C4.77653 40.6415 2.13933 34.2732 2.13933 27.4994C2.13933 20.7256 4.77769 14.3573 9.56693 9.56693C14.3573 4.77769 20.7256 2.13933 27.4994 2.13933Z" fill="white"/>
</g>
<defs>
<clipPath id="clip0_49_1466">
<rect width="55" height="55" fill="white"/>
</clipPath>
</defs>
</svg>
